<?xml version="1.0" encoding="utf-8"?>
<!-- Generator: Adobe Illustrator 27.5.0, SVG Export Plug-In . SVG Version: 6.00 Build 0)  -->
<svg version="1.1" xmlns="http://www.w3.org/2000/svg" xmlns:xlink="http://www.w3.org/1999/xlink" x="0px" y="0px"
	 viewBox="0 0 500 500" style="enable-background:new 0 0 500 500;" xml:space="preserve">
<g id="BACKGROUND">
	<g>
		<rect style="fill:#FFFFFF;" width="500" height="500"/>
	</g>
</g>
<g id="OBJECTS">
	<g>
		<defs>
			<rect id="SVGID_1_" width="500" height="500"/>
		</defs>
		<clipPath id="SVGID_00000070104540640236964750000010898750590491314068_">
			<use xlink:href="#SVGID_1_"  style="overflow:visible;"/>
		</clipPath>
		<g style="clip-path:url(#SVGID_00000070104540640236964750000010898750590491314068_);">
			<rect x="19" y="33" style="fill:#12BAC7;" width="465.333" height="376.667"/>
			<rect x="-7.333" y="-5.667" style="fill:#097599;" width="514.667" height="48"/>
			<rect x="470.333" y="-5.667" style="fill:#0F96B3;" width="37" height="415.333"/>
			<rect x="-7.333" y="-5.667" style="fill:#0F96B3;" width="37" height="415.333"/>
			<rect x="-7.333" y="401" style="fill:#ECE4D9;" width="514.667" height="113.333"/>
			<rect x="-7.333" y="457" style="fill:#DABEA8;" width="514.667" height="57.333"/>
			<ellipse style="fill:#BF9481;" cx="241.416" cy="467.466" rx="196.333" ry="16.532"/>
			<ellipse style="fill:#BF9481;" cx="250" cy="405.371" rx="169.772" ry="4.746"/>
			<g>
				<g>
					<g>
						
							<rect x="43.939" y="100.061" transform="matrix(-1.836970e-16 1 -1 -1.836970e-16 306.2476 34.0611)" style="fill:#0F96A1;" width="184.309" height="140.186"/>
						<rect x="68" y="80" style="fill:#FAE6FF;" width="136.186" height="180.309"/>
						
							<rect x="47.939" y="104.061" transform="matrix(-1.836970e-16 1 -1 -1.836970e-16 306.2476 34.0611)" style="fill:#F5CFFE;" width="176.309" height="132.186"/>
						<g>
							<polygon style="fill:#19AAF7;" points="77,88.196 77,252.113 195.186,88.196 							"/>
							<polygon style="fill:#179DE4;" points="77,252.113 195.186,252.113 195.186,88.196 							"/>
						</g>
					</g>
					<g>
						
							<rect x="269.904" y="100.061" transform="matrix(-1.836970e-16 1 -1 -1.836970e-16 532.2126 -191.904)" style="fill:#0F96A1;" width="184.309" height="140.186"/>
						<rect x="293.965" y="80" style="fill:#FAE6FF;" width="136.186" height="180.309"/>
						
							<rect x="273.904" y="104.061" transform="matrix(-1.836970e-16 1 -1 -1.836970e-16 532.2126 -191.904)" style="fill:#F5CFFE;" width="176.309" height="132.186"/>
						<g>
							<polygon style="fill:#19AAF7;" points="302.965,88.196 302.965,252.113 421.152,88.196 							"/>
							<polygon style="fill:#179DE4;" points="302.965,252.113 421.152,252.113 421.152,88.196 							"/>
						</g>
					</g>
					<g>
						<path style="fill:#012D57;" d="M332.974,316.502v40.863c-2.092,0.47-4.196,0.929-6.288,1.365
							c-1.566,0.347-3.122,0.671-4.688,0.996c-95.97,19.85-195.062,19.525-290.931-0.996c-2.092-0.436-4.196-0.895-6.288-1.365
							v-40.863c0-11.704,5.46-22.356,14.166-29.193c4.61-3.637,10.138-6.199,16.236-7.284c81.816-14.557,165.578-14.557,247.394,0
							C320.196,283.158,332.974,298.599,332.974,316.502z"/>
						<path style="fill:#013A6F;" d="M322.685,323.864v34.866c-1.524,0.347-3.037,0.671-4.561,0.996
							c-93.372,19.85-189.782,19.525-283.056-0.996v-34.866c0-11.704,5.106-22.356,13.227-29.193c4.3-3.636,9.46-6.199,15.143-7.284
							c76.357-14.557,154.521-14.557,230.878,0C310.753,290.52,322.685,305.961,322.685,323.864z"/>
						<path style="fill:#012D57;" d="M332.974,348.536v8.828c-101.475,22.681-206.721,22.681-308.196,0v-8.828
							c1.354-0.213,2.753-0.313,4.162-0.313h299.871C330.221,348.223,331.62,348.324,332.974,348.536z"/>
						<g>
							<path style="fill:#013A6F;" d="M30.35,334.326v27.458c0,6.949-5.639,12.588-12.588,12.588
								c-6.948,0-12.588-5.639-12.588-12.588v-27.458c0-6.948,5.639-12.588,12.588-12.588c3.48,0,6.624,1.41,8.896,3.693
								C28.94,327.702,30.35,330.857,30.35,334.326z"/>
							<path style="fill:#013A6F;" d="M352.577,334.326v27.458c0,6.949-5.639,12.588-12.588,12.588
								c-6.949,0-12.588-5.639-12.588-12.588v-27.458c0-6.948,5.639-12.588,12.588-12.588c3.48,0,6.624,1.41,8.895,3.693
								C351.167,327.702,352.577,330.857,352.577,334.326z"/>
						</g>
						<g>
							<path style="fill:#012D57;" d="M30.35,357.745v4.039c0,6.949-5.639,12.588-12.588,12.588
								c-6.948,0-12.588-5.639-12.588-12.588v-4.039c0-6.948,5.639-12.588,12.588-12.588c3.48,0,6.624,1.41,8.896,3.693
								C28.94,351.121,30.35,354.276,30.35,357.745z"/>
							<path style="fill:#012D57;" d="M352.577,357.745v4.039c0,6.949-5.639,12.588-12.588,12.588
								c-6.949,0-12.588-5.639-12.588-12.588v-4.039c0-6.948,5.639-12.588,12.588-12.588c3.48,0,6.624,1.41,8.895,3.693
								C351.167,351.121,352.577,354.276,352.577,357.745z"/>
						</g>
						<g>
							<polygon style="fill:#C78A50;" points="20.896,417.317 14.087,417.317 11.198,402.491 23.785,402.491 							"/>
							<polygon style="fill:#C78A50;" points="343.665,417.317 336.855,417.317 333.966,402.491 346.554,402.491 							"/>
						</g>
						<g>
							<g>
								<path style="fill:#013A6F;" d="M352.309,386.267H5.443v-10.07c0-12.977,10.52-23.497,23.497-23.497h299.871
									c12.977,0,23.497,10.52,23.497,23.497V386.267z"/>
								<rect x="5.443" y="381.741" style="fill:#012D57;" width="346.866" height="4.525"/>
								<path style="fill:#012D57;" d="M362.379,394.938c0,2.395-0.973,4.565-2.54,6.132s-3.737,2.54-6.132,2.54H4.044
									c-4.789,0-8.672-3.883-8.672-8.672c0-0.783,0.101-1.533,0.291-2.26c0.403-1.488,1.197-2.82,2.249-3.871
									c1.567-1.566,3.737-2.54,6.132-2.54h349.664c4.006,0,7.385,2.719,8.381,6.411
									C362.278,393.405,362.379,394.155,362.379,394.938z"/>
								<path style="fill:#013A6F;" d="M362.088,392.678c-0.403,1.488-1.197,2.82-2.249,3.872c-1.566,1.566-3.737,2.54-6.132,2.54
									H4.044c-4.006,0-7.385-2.719-8.381-6.411c0.403-1.488,1.197-2.82,2.249-3.871c1.567-1.566,3.737-2.54,6.132-2.54h349.664
									C357.713,386.267,361.092,388.985,362.088,392.678z"/>
							</g>
						</g>
						<g>
							<g>
								<circle style="fill:#012D57;" cx="62.247" cy="306.576" r="3.831"/>
								<g>
									<g>
										<path style="fill:#012D57;" d="M66.651,302.172c-0.437-0.437-0.437-1.145,0-1.582l2.952-2.952
											c0.437-0.437,1.146-0.437,1.582,0c0.437,0.437,0.437,1.145,0,1.582l-2.952,2.952
											C67.796,302.609,67.088,302.609,66.651,302.172z"/>
									</g>
									<g>
										<path style="fill:#012D57;" d="M53.308,315.515c-0.437-0.437-0.437-1.145,0-1.582l2.953-2.953
											c0.437-0.437,1.146-0.437,1.582,0c0.437,0.437,0.437,1.145,0,1.582l-2.953,2.953
											C54.453,315.952,53.745,315.952,53.308,315.515z"/>
									</g>
								</g>
								<g>
									<g>
										<path style="fill:#012D57;" d="M69.603,315.515l-2.953-2.953c-0.437-0.437-0.437-1.145,0-1.582
											c0.437-0.437,1.146-0.437,1.582,0l2.953,2.953c0.437,0.437,0.437,1.145,0,1.582
											C70.748,315.952,70.04,315.952,69.603,315.515z"/>
									</g>
									<g>
										<path style="fill:#012D57;" d="M56.261,302.172l-2.953-2.953c-0.437-0.437-0.437-1.145,0-1.582
											c0.437-0.437,1.146-0.437,1.582,0l2.953,2.953c0.437,0.437,0.437,1.145,0,1.582
											C57.406,302.61,56.698,302.609,56.261,302.172z"/>
									</g>
								</g>
							</g>
							<g>
								<path style="fill:#012D57;" d="M110.986,309.285c-1.496,1.496-3.922,1.496-5.418,0c-1.496-1.496-1.496-3.922,0-5.418
									c1.496-1.496,3.922-1.496,5.418,0C112.482,305.363,112.482,307.789,110.986,309.285z"/>
								<g>
									<g>
										<path style="fill:#012D57;" d="M112.681,302.172c-0.437-0.437-0.437-1.145,0-1.582l2.952-2.952
											c0.437-0.437,1.145-0.437,1.582,0c0.437,0.437,0.437,1.145,0,1.582l-2.952,2.952
											C113.826,302.609,113.118,302.609,112.681,302.172z"/>
									</g>
									<g>
										<path style="fill:#012D57;" d="M99.338,315.515c-0.437-0.437-0.437-1.145,0-1.582l2.953-2.953
											c0.437-0.437,1.145-0.437,1.582,0c0.437,0.437,0.437,1.145,0,1.582l-2.953,2.953
											C100.483,315.952,99.775,315.952,99.338,315.515z"/>
									</g>
								</g>
								<g>
									<g>
										<path style="fill:#012D57;" d="M115.633,315.515l-2.953-2.953c-0.437-0.437-0.437-1.145,0-1.582
											c0.437-0.437,1.145-0.437,1.582,0l2.953,2.953c0.437,0.437,0.437,1.145,0,1.582
											C116.778,315.952,116.07,315.952,115.633,315.515z"/>
									</g>
									<g>
										<path style="fill:#012D57;" d="M102.291,302.172l-2.953-2.953c-0.437-0.437-0.437-1.145,0-1.582
											c0.437-0.437,1.146-0.437,1.582,0l2.953,2.953c0.437,0.437,0.437,1.145,0,1.582
											C103.436,302.61,102.728,302.609,102.291,302.172z"/>
									</g>
								</g>
							</g>
							<g>
								<circle style="fill:#012D57;" cx="154.307" cy="306.576" r="3.831"/>
								<g>
									<g>
										<path style="fill:#012D57;" d="M158.711,302.172c-0.437-0.437-0.437-1.145,0-1.582l2.952-2.952
											c0.437-0.437,1.146-0.437,1.582,0c0.437,0.437,0.437,1.145,0,1.582l-2.952,2.952
											C159.856,302.609,159.148,302.609,158.711,302.172z"/>
									</g>
									<g>
										<path style="fill:#012D57;" d="M145.368,315.515c-0.437-0.437-0.437-1.145,0-1.582l2.953-2.953
											c0.437-0.437,1.145-0.437,1.582,0c0.437,0.437,0.437,1.145,0,1.582l-2.953,2.953
											C146.513,315.952,145.805,315.952,145.368,315.515z"/>
									</g>
								</g>
								<g>
									<g>
										<path style="fill:#012D57;" d="M161.663,315.515l-2.953-2.953c-0.437-0.437-0.437-1.145,0-1.582
											c0.437-0.437,1.145-0.437,1.582,0l2.953,2.953c0.437,0.437,0.437,1.145,0,1.582
											C162.808,315.952,162.1,315.952,161.663,315.515z"/>
									</g>
									<g>
										<path style="fill:#012D57;" d="M148.321,302.172l-2.953-2.953c-0.437-0.437-0.437-1.145,0-1.582
											c0.437-0.437,1.145-0.437,1.582,0l2.953,2.953c0.437,0.437,0.437,1.145,0,1.582
											C149.466,302.61,148.758,302.609,148.321,302.172z"/>
									</g>
								</g>
							</g>
							<g>
								<path style="fill:#012D57;" d="M203.046,309.285c-1.496,1.496-3.922,1.496-5.418,0c-1.496-1.496-1.496-3.922,0-5.418
									c1.496-1.496,3.922-1.496,5.418,0C204.542,305.363,204.542,307.789,203.046,309.285z"/>
								<g>
									<g>
										<path style="fill:#012D57;" d="M204.741,302.172c-0.437-0.437-0.437-1.145,0-1.582l2.952-2.952
											c0.437-0.437,1.145-0.437,1.582,0c0.437,0.437,0.437,1.145,0,1.582l-2.952,2.952
											C205.886,302.609,205.178,302.609,204.741,302.172z"/>
									</g>
									<g>
										<path style="fill:#012D57;" d="M191.398,315.515c-0.437-0.437-0.437-1.145,0-1.582l2.953-2.953
											c0.437-0.437,1.145-0.437,1.582,0c0.437,0.437,0.437,1.145,0,1.582l-2.953,2.953
											C192.543,315.952,191.835,315.952,191.398,315.515z"/>
									</g>
								</g>
								<g>
									<g>
										<path style="fill:#012D57;" d="M207.693,315.515l-2.953-2.953c-0.437-0.437-0.437-1.145,0-1.582
											c0.437-0.437,1.145-0.437,1.582,0l2.953,2.953c0.437,0.437,0.437,1.145,0,1.582
											C208.838,315.952,208.13,315.952,207.693,315.515z"/>
									</g>
									<g>
										<path style="fill:#012D57;" d="M194.351,302.172l-2.953-2.953c-0.437-0.437-0.437-1.145,0-1.582
											c0.437-0.437,1.146-0.437,1.582,0l2.953,2.953c0.437,0.437,0.437,1.145,0,1.582
											C195.496,302.61,194.788,302.609,194.351,302.172z"/>
									</g>
								</g>
							</g>
							<g>
								<circle style="fill:#012D57;" cx="246.367" cy="306.576" r="3.831"/>
								<g>
									<g>
										<path style="fill:#012D57;" d="M250.771,302.172c-0.437-0.437-0.437-1.145,0-1.582l2.952-2.952
											c0.437-0.437,1.146-0.437,1.582,0c0.437,0.437,0.437,1.145,0,1.582l-2.952,2.952
											C251.916,302.609,251.208,302.609,250.771,302.172z"/>
									</g>
									<g>
										<path style="fill:#012D57;" d="M237.428,315.515c-0.437-0.437-0.437-1.145,0-1.582l2.953-2.953
											c0.437-0.437,1.146-0.437,1.582,0c0.437,0.437,0.437,1.145,0,1.582l-2.953,2.953
											C238.573,315.952,237.865,315.952,237.428,315.515z"/>
									</g>
								</g>
								<g>
									<g>
										<path style="fill:#012D57;" d="M253.723,315.515l-2.953-2.953c-0.437-0.437-0.437-1.145,0-1.582
											c0.437-0.437,1.146-0.437,1.582,0l2.953,2.953c0.437,0.437,0.437,1.145,0,1.582
											C254.868,315.952,254.16,315.952,253.723,315.515z"/>
									</g>
									<g>
										<path style="fill:#012D57;" d="M240.381,302.172l-2.953-2.953c-0.437-0.437-0.437-1.145,0-1.582
											c0.437-0.437,1.145-0.437,1.582,0l2.953,2.953c0.437,0.437,0.437,1.145,0,1.582
											C241.526,302.61,240.818,302.609,240.381,302.172z"/>
									</g>
								</g>
							</g>
							<g>
								<path style="fill:#012D57;" d="M295.106,309.285c-1.496,1.496-3.922,1.496-5.418,0c-1.496-1.496-1.496-3.922,0-5.418
									c1.496-1.496,3.922-1.496,5.418,0C296.602,305.363,296.602,307.789,295.106,309.285z"/>
								<g>
									<g>
										<path style="fill:#012D57;" d="M296.801,302.172c-0.437-0.437-0.437-1.145,0-1.582l2.952-2.952
											c0.437-0.437,1.145-0.437,1.582,0c0.437,0.437,0.437,1.145,0,1.582l-2.952,2.952
											C297.946,302.609,297.238,302.609,296.801,302.172z"/>
									</g>
									<g>
										<path style="fill:#012D57;" d="M283.458,315.515c-0.437-0.437-0.437-1.145,0-1.582l2.953-2.953
											c0.437-0.437,1.145-0.437,1.582,0c0.437,0.437,0.437,1.145,0,1.582l-2.953,2.953
											C284.603,315.952,283.895,315.952,283.458,315.515z"/>
									</g>
								</g>
								<g>
									<g>
										<path style="fill:#012D57;" d="M299.753,315.515l-2.953-2.953c-0.437-0.437-0.437-1.145,0-1.582
											c0.437-0.437,1.145-0.437,1.582,0l2.953,2.953c0.437,0.437,0.437,1.145,0,1.582
											C300.898,315.952,300.19,315.952,299.753,315.515z"/>
									</g>
									<g>
										<path style="fill:#012D57;" d="M286.411,302.172l-2.953-2.953c-0.437-0.437-0.437-1.145,0-1.582
											c0.437-0.437,1.146-0.437,1.582,0l2.953,2.953c0.437,0.437,0.437,1.145,0,1.582
											C287.556,302.61,286.848,302.609,286.411,302.172z"/>
									</g>
								</g>
							</g>
						</g>
						<g>
							<g>
								<circle style="fill:#012D57;" cx="62.247" cy="335.89" r="3.831"/>
								<g>
									<g>
										<path style="fill:#012D57;" d="M66.651,331.486c-0.437-0.437-0.437-1.145,0-1.582l2.952-2.952
											c0.437-0.437,1.146-0.437,1.582,0c0.437,0.437,0.437,1.145,0,1.582l-2.952,2.952
											C67.796,331.924,67.088,331.923,66.651,331.486z"/>
									</g>
									<g>
										<path style="fill:#012D57;" d="M53.308,344.829c-0.437-0.437-0.437-1.145,0-1.582l2.953-2.953
											c0.437-0.437,1.146-0.437,1.582,0c0.437,0.437,0.437,1.145,0,1.582l-2.953,2.953
											C54.453,345.267,53.745,345.266,53.308,344.829z"/>
									</g>
								</g>
								<g>
									<g>
										<path style="fill:#012D57;" d="M69.603,344.829l-2.953-2.953c-0.437-0.437-0.437-1.145,0-1.582
											c0.437-0.437,1.146-0.437,1.582,0l2.953,2.953c0.437,0.437,0.437,1.145,0,1.582
											C70.748,345.267,70.04,345.266,69.603,344.829z"/>
									</g>
									<g>
										<path style="fill:#012D57;" d="M56.261,331.487l-2.953-2.953c-0.437-0.437-0.437-1.145,0-1.582
											c0.437-0.437,1.146-0.437,1.582,0l2.953,2.953c0.437,0.437,0.437,1.145,0,1.582
											C57.406,331.924,56.698,331.924,56.261,331.487z"/>
									</g>
								</g>
							</g>
							<g>
								<path style="fill:#012D57;" d="M110.986,338.599c-1.496,1.496-3.922,1.496-5.418,0c-1.496-1.496-1.496-3.922,0-5.418
									c1.496-1.496,3.922-1.496,5.418,0C112.482,334.678,112.482,337.103,110.986,338.599z"/>
								<g>
									<g>
										<path style="fill:#012D57;" d="M112.681,331.486c-0.437-0.437-0.437-1.145,0-1.582l2.952-2.952
											c0.437-0.437,1.145-0.437,1.582,0c0.437,0.437,0.437,1.145,0,1.582l-2.952,2.952
											C113.826,331.924,113.118,331.923,112.681,331.486z"/>
									</g>
									<g>
										<path style="fill:#012D57;" d="M99.338,344.829c-0.437-0.437-0.437-1.145,0-1.582l2.953-2.953
											c0.437-0.437,1.145-0.437,1.582,0c0.437,0.437,0.437,1.145,0,1.582l-2.953,2.953
											C100.483,345.267,99.775,345.266,99.338,344.829z"/>
									</g>
								</g>
								<g>
									<g>
										<path style="fill:#012D57;" d="M115.633,344.829l-2.953-2.953c-0.437-0.437-0.437-1.145,0-1.582
											c0.437-0.437,1.145-0.437,1.582,0l2.953,2.953c0.437,0.437,0.437,1.145,0,1.582
											C116.778,345.267,116.07,345.266,115.633,344.829z"/>
									</g>
									<g>
										<path style="fill:#012D57;" d="M102.291,331.487l-2.953-2.953c-0.437-0.437-0.437-1.145,0-1.582
											c0.437-0.437,1.146-0.437,1.582,0l2.953,2.953c0.437,0.437,0.437,1.145,0,1.582
											C103.436,331.924,102.728,331.924,102.291,331.487z"/>
									</g>
								</g>
							</g>
							<g>
								<circle style="fill:#012D57;" cx="154.307" cy="335.89" r="3.831"/>
								<g>
									<g>
										<path style="fill:#012D57;" d="M158.711,331.486c-0.437-0.437-0.437-1.145,0-1.582l2.952-2.952
											c0.437-0.437,1.146-0.437,1.582,0c0.437,0.437,0.437,1.145,0,1.582l-2.952,2.952
											C159.856,331.924,159.148,331.923,158.711,331.486z"/>
									</g>
									<g>
										<path style="fill:#012D57;" d="M145.368,344.829c-0.437-0.437-0.437-1.145,0-1.582l2.953-2.953
											c0.437-0.437,1.145-0.437,1.582,0c0.437,0.437,0.437,1.145,0,1.582l-2.953,2.953
											C146.513,345.267,145.805,345.266,145.368,344.829z"/>
									</g>
								</g>
								<g>
									<g>
										<path style="fill:#012D57;" d="M161.663,344.829l-2.953-2.953c-0.437-0.437-0.437-1.145,0-1.582
											c0.437-0.437,1.145-0.437,1.582,0l2.953,2.953c0.437,0.437,0.437,1.145,0,1.582
											C162.808,345.267,162.1,345.266,161.663,344.829z"/>
									</g>
									<g>
										<path style="fill:#012D57;" d="M148.321,331.487l-2.953-2.953c-0.437-0.437-0.437-1.145,0-1.582
											c0.437-0.437,1.145-0.437,1.582,0l2.953,2.953c0.437,0.437,0.437,1.145,0,1.582
											C149.466,331.924,148.758,331.924,148.321,331.487z"/>
									</g>
								</g>
							</g>
							<g>
								<path style="fill:#012D57;" d="M203.046,338.599c-1.496,1.496-3.922,1.496-5.418,0c-1.496-1.496-1.496-3.922,0-5.418
									c1.496-1.496,3.922-1.496,5.418,0C204.542,334.678,204.542,337.103,203.046,338.599z"/>
								<g>
									<g>
										<path style="fill:#012D57;" d="M204.741,331.486c-0.437-0.437-0.437-1.145,0-1.582l2.952-2.952
											c0.437-0.437,1.145-0.437,1.582,0c0.437,0.437,0.437,1.145,0,1.582l-2.952,2.952
											C205.886,331.924,205.178,331.923,204.741,331.486z"/>
									</g>
									<g>
										<path style="fill:#012D57;" d="M191.398,344.829c-0.437-0.437-0.437-1.145,0-1.582l2.953-2.953
											c0.437-0.437,1.145-0.437,1.582,0c0.437,0.437,0.437,1.145,0,1.582l-2.953,2.953
											C192.543,345.267,191.835,345.266,191.398,344.829z"/>
									</g>
								</g>
								<g>
									<g>
										<path style="fill:#012D57;" d="M207.693,344.829l-2.953-2.953c-0.437-0.437-0.437-1.145,0-1.582
											c0.437-0.437,1.145-0.437,1.582,0l2.953,2.953c0.437,0.437,0.437,1.145,0,1.582
											C208.838,345.267,208.13,345.266,207.693,344.829z"/>
									</g>
									<g>
										<path style="fill:#012D57;" d="M194.351,331.487l-2.953-2.953c-0.437-0.437-0.437-1.145,0-1.582
											c0.437-0.437,1.146-0.437,1.582,0l2.953,2.953c0.437,0.437,0.437,1.145,0,1.582
											C195.496,331.924,194.788,331.924,194.351,331.487z"/>
									</g>
								</g>
							</g>
							<g>
								<circle style="fill:#012D57;" cx="246.367" cy="335.89" r="3.831"/>
								<g>
									<g>
										<path style="fill:#012D57;" d="M250.771,331.486c-0.437-0.437-0.437-1.145,0-1.582l2.952-2.952
											c0.437-0.437,1.146-0.437,1.582,0c0.437,0.437,0.437,1.145,0,1.582l-2.952,2.952
											C251.916,331.924,251.208,331.923,250.771,331.486z"/>
									</g>
									<g>
										<path style="fill:#012D57;" d="M237.428,344.829c-0.437-0.437-0.437-1.145,0-1.582l2.953-2.953
											c0.437-0.437,1.146-0.437,1.582,0c0.437,0.437,0.437,1.145,0,1.582l-2.953,2.953
											C238.573,345.267,237.865,345.266,237.428,344.829z"/>
									</g>
								</g>
								<g>
									<g>
										<path style="fill:#012D57;" d="M253.723,344.829l-2.953-2.953c-0.437-0.437-0.437-1.145,0-1.582
											c0.437-0.437,1.146-0.437,1.582,0l2.953,2.953c0.437,0.437,0.437,1.145,0,1.582
											C254.868,345.267,254.16,345.266,253.723,344.829z"/>
									</g>
									<g>
										<path style="fill:#012D57;" d="M240.381,331.487l-2.953-2.953c-0.437-0.437-0.437-1.145,0-1.582
											c0.437-0.437,1.145-0.437,1.582,0l2.953,2.953c0.437,0.437,0.437,1.145,0,1.582
											C241.526,331.924,240.818,331.924,240.381,331.487z"/>
									</g>
								</g>
							</g>
							<g>
								<path style="fill:#012D57;" d="M295.106,338.599c-1.496,1.496-3.922,1.496-5.418,0c-1.496-1.496-1.496-3.922,0-5.418
									c1.496-1.496,3.922-1.496,5.418,0C296.602,334.678,296.602,337.103,295.106,338.599z"/>
								<g>
									<g>
										<path style="fill:#012D57;" d="M296.801,331.486c-0.437-0.437-0.437-1.145,0-1.582l2.952-2.952
											c0.437-0.437,1.145-0.437,1.582,0c0.437,0.437,0.437,1.145,0,1.582l-2.952,2.952
											C297.946,331.924,297.238,331.923,296.801,331.486z"/>
									</g>
									<g>
										<path style="fill:#012D57;" d="M283.458,344.829c-0.437-0.437-0.437-1.145,0-1.582l2.953-2.953
											c0.437-0.437,1.145-0.437,1.582,0c0.437,0.437,0.437,1.145,0,1.582l-2.953,2.953
											C284.603,345.267,283.895,345.266,283.458,344.829z"/>
									</g>
								</g>
								<g>
									<g>
										<path style="fill:#012D57;" d="M299.753,344.829l-2.953-2.953c-0.437-0.437-0.437-1.145,0-1.582
											c0.437-0.437,1.145-0.437,1.582,0l2.953,2.953c0.437,0.437,0.437,1.145,0,1.582
											C300.898,345.267,300.19,345.266,299.753,344.829z"/>
									</g>
									<g>
										<path style="fill:#012D57;" d="M286.411,331.487l-2.953-2.953c-0.437-0.437-0.437-1.145,0-1.582
											c0.437-0.437,1.146-0.437,1.582,0l2.953,2.953c0.437,0.437,0.437,1.145,0,1.582
											C287.556,331.924,286.848,331.924,286.411,331.487z"/>
									</g>
								</g>
							</g>
						</g>
					</g>
					<ellipse style="fill:#BF9481;" cx="111.583" cy="468.061" rx="43.583" ry="5.126"/>
					<g>
						<g>
							<g>
								<path style="fill:#465A70;" d="M121.343,185H103.25c-9.236,0-16.75-7.514-16.75-16.75V156c0-1.105,0.896-2,2-2s2,0.895,2,2
									v12.25c0,7.03,5.72,12.75,12.75,12.75h18.093c7.03,0,12.75-5.72,12.75-12.75V156c0-1.105,0.896-2,2-2s2,0.895,2,2v12.25
									C138.093,177.486,130.579,185,121.343,185z"/>
							</g>
							<g>
								<path style="fill:#465A70;" d="M136.093,468.129c-1.104,0-2-0.896-2-2v-8.446c0-7.03-5.72-12.75-12.75-12.75H103.25
									c-7.03,0-12.75,5.72-12.75,12.75v8.446c0,1.104-0.896,2-2,2s-2-0.896-2-2v-8.446c0-9.236,7.514-16.75,16.75-16.75h18.093
									c9.236,0,16.75,7.514,16.75,16.75v8.446C138.093,467.233,137.198,468.129,136.093,468.129z"/>
							</g>
							<g>
								<circle style="fill:#002951;" cx="88.5" cy="466.129" r="6.25"/>
								<circle style="fill:#002951;" cx="136.093" cy="466.129" r="6.25"/>
							</g>
							<g>
								<path style="fill:#465A70;" d="M112.297,444.933c-1.104,0-2-0.895-2-2V183c0-1.105,0.896-2,2-2s2,0.895,2,2v259.933
									C114.297,444.037,113.401,444.933,112.297,444.933z"/>
							</g>
						</g>
						<g>
							<g>
								<path style="fill:#F5CFFE;" d="M134.276,227.75h-13.491c-3.659,0-6.625-2.966-6.625-6.625v-21.25
									c0-3.659,2.966-6.625,6.625-6.625h13.491c3.659,0,6.625,2.966,6.625,6.625v21.25
									C140.901,224.784,137.935,227.75,134.276,227.75z"/>
								<g>
									<path style="fill:#700119;" d="M138.9,209.03v12.09c0,2.56-2.07,4.63-4.62,4.63h-13.49c-2.51,0-4.55-1.99-4.62-4.49
										c-0.01-0.04-0.01-0.09-0.01-0.14v-14.97c1.26-0.61,2.63-0.99,4.03-1.1c4.23-0.32,8.22,1.71,12.25,3.02
										c1.15,0.37,2.38,0.67,3.63,0.83C137.02,209.04,137.97,209.09,138.9,209.03z"/>
									<path style="fill:#A60125;" d="M136.09,209.57c0,7.33-6.05,13.27-13.52,13.27c-2.32,0-4.5-0.57-6.4-1.58
										c-0.01-0.04-0.01-0.09-0.01-0.14v-14.97c1.26-0.61,2.63-0.99,4.03-1.1c4.23-0.32,8.22,1.71,12.25,3.02
										c1.15,0.37,2.38,0.67,3.63,0.83C136.08,209.12,136.09,209.34,136.09,209.57z"/>
									<path style="fill:#F0355E;" d="M121.554,212.034c0,1.646-0.725,2.981-1.619,2.981c-0.894,0-1.619-1.335-1.619-2.981
										s0.725-2.981,1.619-2.981C120.829,209.053,121.554,210.388,121.554,212.034z"/>
									<path style="fill:#179DE4;" d="M132.437,208.068c2.042,0.662,4.319,1.087,6.464,0.964v-9.157
										c0-2.55-2.075-4.625-4.625-4.625h-13.491c-2.55,0-4.625,2.075-4.625,4.625v6.277c1.261-0.61,2.634-0.991,4.031-1.099
										C124.416,204.727,128.406,206.762,132.437,208.068z"/>
								</g>
							</g>
							<g>
								<path style="fill:#465A70;" d="M127.53,193.75c-0.276,0-0.5-0.224-0.5-0.5v-13.857c0-0.276,0.224-0.5,0.5-0.5
									c0.276,0,0.5,0.224,0.5,0.5v13.857C128.03,193.526,127.807,193.75,127.53,193.75z"/>
							</g>
							<g>
								<path style="fill:#465A70;" d="M134.215,345.853c-3.962,0-7.185-3.224-7.185-7.186V227.75c0-0.276,0.224-0.5,0.5-0.5
									c0.276,0,0.5,0.224,0.5,0.5v110.917c0,3.411,2.774,6.186,6.185,6.186s6.186-2.774,6.186-6.186v-23.648
									c0-3.962,3.223-7.186,7.185-7.186h7.081c0.276,0,0.5,0.224,0.5,0.5s-0.224,0.5-0.5,0.5h-7.081
									c-3.411,0-6.185,2.774-6.185,6.186v23.648C141.401,342.629,138.177,345.853,134.215,345.853z"/>
							</g>
						</g>
					</g>
				</g>
			</g>
			<g>
				<path style="fill:#F6F9FF;" d="M132.178,288.184l-19.996,19.837l-0.355-0.355L11.858,206.888l13.176-13.065l6.82-6.771
					C72.177,206.264,83.81,258.55,132.178,288.184z"/>
				<path style="fill:#D6DEF1;" d="M124.88,294.722l-13.053,12.943L11.858,206.888l13.176-13.065
					C64.989,213.219,76.708,265.212,124.88,294.722z"/>
				<g>
					<path style="fill:#465A70;" d="M115.303,332.743c-10.925,0-19.814-8.888-19.814-19.813c0-4.492,1.551-8.765,4.287-12.225
						c-4.948-4.23-9.604-8.77-14.061-13.527c-6.184,7.095-9.654,16.197-9.654,25.753c0,21.638,17.604,39.242,39.242,39.242
						c5.365,0,9.714-4.35,9.714-9.714C125.018,337.092,120.668,332.743,115.303,332.743z"/>
				</g>
				<g>
					<polygon style="fill:#FFB375;" points="257.445,232.726 256.073,252.746 234.914,260.363 231.522,261.575 210.252,246.82 
						217.71,244.358 217.722,244.358 236.506,238.175 239.653,237.134 241.22,232.726 241.22,232.713 242.849,228.109 
						242.922,227.901 243.388,228.048 					"/>
					<path style="fill:#EF9757;" d="M257.445,232.726l-1.371,20.021l-21.159,7.616c-4.261-2.327-10.225-5.731-10.225-5.731
						l-9.796-6.221l2.816-4.053h0.012c8.951-0.257,27.27,9.159,27.27,9.159l6.502-15.417c-6.269,0.11-10.274-5.376-10.274-5.376
						v-0.012l1.629-4.604c0.184-0.012,0.367-0.037,0.539-0.061L257.445,232.726z"/>
					<path style="fill:#521300;" d="M322.559,180.583c-0.992,4.738-0.792,9.976-3.574,13.938c-2.504,3.566-7.325,5.324-11.537,4.207
						c-5.623-1.49-9.166-7.475-9.47-13.284c-0.305-5.809,1.982-11.433,4.642-16.606c2.66-5.173,5.763-10.197,7.314-15.803
						c0.785-2.837,1.159-5.782,2.067-8.583c0.908-2.8,2.454-5.541,4.965-7.077c4.104-2.51,9.86-0.925,12.955,2.758
						c3.095,3.683,3.844,8.899,3.066,13.646c-0.778,4.747-2.91,9.151-5.064,13.452C325.769,171.533,323.545,175.875,322.559,180.583
						z"/>
					<path style="fill:#FF8C44;" d="M317.646,143.614c0,3.156-2.604,5.714-5.816,5.714c-3.212,0-5.816-2.558-5.816-5.714
						c0-3.156,2.604-5.714,5.816-5.714C315.042,137.9,317.646,140.458,317.646,143.614z"/>
					<path style="fill:#FFBB44;" d="M315.062,145.451c0,3.156-2.604,5.714-5.816,5.714s-5.816-2.558-5.816-5.714
						c0-3.156,2.604-5.714,5.816-5.714S315.062,142.295,315.062,145.451z"/>
					<path style="fill:#075A75;" d="M266.625,196.472l-3.673-4.49c0,0-19.931,9.388-26.599,34.286c0,0,7.122,13.469,22.983,10.408
						L266.625,196.472z"/>
					<path style="fill:#097599;" d="M331.528,285.245l-92.45-7.016c0,0,3.918-9.637,8.584-23.229
						c6.355-18.49,14.119-44.303,15.294-63.013c0,0,16.531-13.274,39.38-9.796c0,0,13.065,1.837,23.878,7.959l4.874,87.111
						L331.528,285.245z"/>
					<path style="fill:#075A75;" d="M331.528,285.245l-92.45-7.016c0,0,3.918-9.637,8.584-23.229
						c5.437,3.257,10.947,7.102,16.433,11.62c3.71-0.576,7.359-0.857,10.898-0.857h0.539c2.559,0.037,4.984,1.127,6.649,3
						c1.457,1.629,2.277,3.723,2.29,5.89c0,0.428-0.025,0.845-0.086,1.261c0.404,0.024,0.82,0.061,1.237,0.098
						c9.086,0.698,22.323,1.518,33.809,1.518c3.612,0,6.882-0.074,9.698-0.245c0.514-0.024,1.029-0.037,1.567-0.037
						c0.135,0,0.257,0,0.392,0.012L331.528,285.245z"/>
					<path style="fill:#FFB375;" d="M339.279,286.677h-10.2l-0.184-2.388l-2.853-38.046l-0.025-0.38l18.564-3.061
						c0,0,0.894,2.339,1.604,6.245h0.012C347.703,257.142,348.499,271.959,339.279,286.677z"/>
					<path style="fill:#EF9757;" d="M346.197,249.048c0,0-4.984,5.376-15.698,5.02l1.029,29.854l-2.633,0.367l-2.853-38.046
						l20.143,2.804H346.197z"/>
					<path style="fill:none;stroke:#231F20;stroke-width:2;stroke-linecap:round;stroke-linejoin:round;stroke-miterlimit:10;" d="
						M279.89,190.145c0,0,8.572-13.778,20.613-11.175c12.041,2.603,14.49,23.216,6.531,45.257"/>
					<g>
						<path style="fill:none;stroke:#231F20;stroke-width:2;stroke-linecap:round;stroke-linejoin:round;stroke-miterlimit:10;" d="
							M262.376,201.51l7.627-9.62c2.114-2.937,6.09-3.828,9.255-2.075h0c3.668,2.032,4.803,6.773,2.453,10.246l-7.185,9.723"/>
						<path style="fill:#231F20;" d="M277.465,210.708c-0.757,1.851-2.871,2.739-4.723,1.982c-1.851-0.757-2.739-2.871-1.982-4.722
							c0.757-1.851,2.871-2.739,4.722-1.982C277.334,206.742,278.221,208.856,277.465,210.708z"/>
						<path style="fill:#231F20;" d="M267.223,202.609c-0.757,1.851-2.871,2.739-4.723,1.982c-1.851-0.757-2.739-2.871-1.982-4.722
							c0.757-1.851,2.871-2.739,4.722-1.982C267.092,198.643,267.979,200.757,267.223,202.609z"/>
					</g>
					<path style="fill:#097599;" d="M321.728,214.531l4.49-24.386c0,0,25.715,8.916,23.208,56.674c0,0-11.167,9.857-25.248,4.143
						L321.728,214.531z"/>
					<path style="fill:#6E1E01;" d="M306.572,170.766c-3.11,2.572-5.865,3.869-5.865,3.869l-28.164-16.323
						c-0.894-4.2-0.71-8.217,0.318-11.829c0-0.012,0-0.012,0-0.012c2.326-8.167,9.025-14.241,17.67-15.515
						c12.49-1.837,23.645,8.168,24.662,22.249C315.793,161.361,310.846,167.251,306.572,170.766z"/>
					<path style="fill:#802301;" d="M306.572,170.766c-3.11,2.572-5.865,3.869-5.865,3.869l-28.164-16.323
						c-0.894-4.2-0.71-8.217,0.318-11.829c0-0.012,0-0.012,0-0.012c2.914-6,8.302-10.274,14.902-11.314
						c11.621-1.837,22.004,8.155,22.96,22.237C311.091,162.892,309.119,167.361,306.572,170.766z"/>
					<path style="fill:#FFB375;" d="M277.441,143.41c0,0,10.408,19.592,23.47,16.939c0,0,1.01-2.12,3.1-2.668
						c2.3-0.602,4.678,1.313,4.496,3.683c-0.196,2.536-2.882,4.822-6.167,5.107l2.245,18.776c0,0,3.579,0.816,3.932,3.878
						c0.353,3.061-17.81,27.143-21.075,25.307c-3.265-1.837-4.082-27.96,1.225-28.98l1.429-0.612l-0.408-4.929
						c0,0-9.796,5.95-15.306-10.785C271.319,157.084,271.931,147.492,277.441,143.41z"/>
					<circle style="fill:#231F20;" cx="304.232" cy="227.901" r="6.943"/>
					<path style="fill:#231F20;" d="M308.087,227.901c0,2.129-1.726,3.855-3.855,3.855s-3.855-1.726-3.855-3.855
						s1.726-3.855,3.855-3.855S308.087,225.772,308.087,227.901z"/>
					<g>
						<path style="fill:#EF9757;" d="M205.882,201.238l6.37,4.932c0.531,0.411,0.531,1.213-0.001,1.623l-1.998,1.544
							L205.882,201.238z"/>
						<path style="fill:#FFB375;" d="M213.424,219.648c0.012,0.453-0.025,0.894-0.122,1.322v0.012
							c-0.282,1.384-1.053,2.633-2.18,3.514c-1.176,0.918-2.878,1.984-5.314,3c-5.914,2.449-12.649,7.347-6.943,15.306h-25.911
							l-1.812-2.253l4.261-35.094l16.727-15.306C192.13,190.15,212.959,200.643,213.424,219.648z"/>
						<path style="fill:#EF9757;" d="M213.301,220.982c-0.282,1.384-1.053,2.633-2.18,3.514c-1.176,0.918-2.878,1.984-5.314,3
							c-5.914,2.449-12.649,7.347-6.943,15.306h-10.984l-0.845-2.449c-3.367-8.682,7.604-13.69,14.388-13.678
							C207.987,226.689,212.995,221.313,213.301,220.982z"/>
						<path style="fill:#802301;" d="M198.471,184.904c-0.974-1.7-3.481-2.279-5.102-1.178c-0.945-1.836-2.988-3.532-5.038-3.777
							c-0.792-0.095-1.629-0.031-2.327,0.357c-0.697,0.387-1.223,1.145-1.174,1.941c-1.024-1.178-3.228-1.919-4.697-1.391
							c-1.468,0.528-2.539,2.013-2.577,3.573c-0.821-1.229-3.179-1.49-4.57-0.993c-1.391,0.497-2.347,2.006-2.203,3.476
							c-1.009-0.447-2.13-0.337-3.022,0.314c-0.892,0.65-1.398,1.794-1.281,2.891c0.279,0.253,0.557,0.506,0.836,0.759
							c-1.53-0.604-3.363,0.164-4.34,1.487c-0.977,1.323-0.938,3.304,0.09,4.588c-1.399-0.104-2.731,0.565-3.367,1.815
							c-0.637,1.251-0.447,2.875,0.46,3.945c-1.675,0.076-3.472,1.446-3.658,3.113c-0.185,1.666,0.979,3.381,2.596,3.823
							c-1.074,1.052-1.607,2.949-1.387,4.436c0.22,1.487,1.185,2.845,2.518,3.541c-0.551,1.263-0.071,2.696,0.744,3.807
							c0.815,1.111,2.243,1.74,3.613,1.593c-0.345,1.31,0.269,3.178,1.246,4.116c0.977,0.938,2.475,1.295,3.77,0.897
							c0.219,1.502,1.734,2.919,3.169,3.412c1.411,0.484,3.071,0.128,4.167-0.882c0.013,0.108,0.152,0.328,0.279,0.263
							c0.963,1.322,2.67,2.06,4.292,1.856c1.622-0.204,3.093-1.343,3.698-2.863c1.972,1.415,4.926,1.111,6.988-0.168
							c2.062-1.279,3.443-4.421,3.051-6.816c-1.318,1.526-3.58,2.16-5.499,1.54c-1.966-0.634-3.449-2.548-3.572-4.61
							c-0.123-2.062,1.121-4.139,2.998-5.003c1.876-0.864,4.264-0.458,5.75,0.977c1.551-0.77,2.706-2.756,2.223-4.419
							c-0.484-1.663-2.251-2.849-3.974-2.667c1.212-0.831,1.886-2.967,1.454-4.371c-0.431-1.404-1.837-2.449-3.306-2.456
							c1.24-0.043,2.22-1.387,2.693-2.535c0.473-1.147,0.214-2.561-0.636-3.465c1.403,0.437,2.841-0.727,3.684-1.931
							c0.843-1.204,0.808-2.953-0.083-4.122C198.747,188.938,199.445,186.605,198.471,184.904z"/>
						<path style="fill:#83E4F5;" d="M171.148,240.554c0,0,48.742-10,95.477,31.429l-51.837,31.225l-56.123-5.301
							C158.664,297.907,150.774,266.065,171.148,240.554z"/>
						<path style="fill:#69CADB;" d="M177.697,247.433c0,0,24.484,2.275,44.381,40.199l-1.354,4.192l-16.033,0.268l-26.994-43.986
							V247.433z"/>
						<path style="fill:#95D2EE;" d="M465.195,311.927l-28.164,90.393c0,0-3.674,11.474-17.951,4.653
							c-14.29-6.82-25.629-11.4-42.049-16.359c-16.408-4.971-80.744-21.637-94.189-34.139
							c-13.445-12.502-47.915-13.262-47.915-13.262l-1.029-41.694l-0.245-9.943l28.715-12.649l9.686-1.641
							c0,0,5.461,0.551,13.384,1.163c12.429,0.955,30.882,2.033,43.837,1.286c21.233-1.225,82.042,26.633,82.042,26.633
							s4.09,2.204,10.115,3.833c5.082,1.371,11.535,2.351,18.098,1.249c2.167-0.355,4.347-0.943,6.49-1.812
							C462.342,303,465.195,311.927,465.195,311.927z"/>
						<path style="fill:#71B3D1;" d="M285.437,278.449c-0.049,2.816-1.959,5.535-5.082,6.257c-12,2.755-29.976,8.229-34.029,16.813
							h-12.429l-0.245-9.943l28.715-12.649l9.686-1.641C272.053,277.285,277.515,277.836,285.437,278.449z"/>
						<path style="fill:#71B3D1;" d="M439.529,311.449c-2.216,1.91-4.2,4.139-6.049,6.416c-3.563,4.396-6.808,9.135-11.082,12.857
							c-4.286,3.71-9.906,6.355-15.527,5.571c-3.955-0.563-7.886-3.22-8.731-7.139c-1.041-4.837,2.853-9.453,7.237-11.767
							c4.371-2.302,9.404-3.196,13.702-5.645c0.82-0.465,1.592-0.992,2.351-1.543C426.513,311.572,432.966,312.551,439.529,311.449z
							"/>
						<path style="fill:#71B3D1;" d="M382.28,344.023c-8.474-0.336-16.422-4.186-23.565-8.76s-13.785-9.953-21.281-13.92
							c-10.387-5.498-22.277-8.121-34.013-7.505c-2.837,0.149-5.819,0.458-8.399-0.73c-2.581-1.188-4.403-4.557-2.863-6.945
							c1.087-1.685,3.293-2.183,5.282-2.437c12.866-1.64,25.988,0.963,38.121,5.55c12.132,4.586,23.423,11.107,34.652,17.598
							c5.441,3.145,10.883,6.291,16.324,9.437c0.996,0.576,2.05,1.214,2.532,2.258c0.734,1.59-0.224,3.564-1.71,4.49
							C385.876,343.983,384.03,344.092,382.28,344.023z"/>
						<path style="fill:#5FC7E2;" d="M282.021,274.677v0.037c0,2.865-1.898,5.645-5.069,6.38c-12,2.755-29.976,8.216-34.029,16.813
							h-32.67c0,0,28.69-29.988,65.254-29.694c1.849,0.025,3.612,0.796,4.849,2.18C281.482,271.653,282.008,273.171,282.021,274.677
							z"/>
						<path style="fill:#4CA9C2;" d="M282.021,274.677v0.037c0,2.865-1.898,5.645-5.069,6.38c-12,2.755-29.976,8.216-34.029,16.813
							h-20.29c10.69-8.792,32.511-23.572,58.225-23.351C281.249,274.555,281.641,274.604,282.021,274.677z"/>
						<path style="fill:#84D4E3;" d="M222.167,289.53l-29.033,15.968l-7.531,4.139c0,0-32.609-48.686-14.461-60.858
							c2.033-1.359,4.212-1.959,6.49-1.959C196.599,246.905,222.167,289.53,222.167,289.53z"/>
						<path style="fill:#9AE7F5;" d="M222.167,289.53l-29.033,15.968c-4.102-6.355-28.764-45.833-15.502-58.678
							C196.599,246.905,222.167,289.53,222.167,289.53z"/>
						<path style="fill:#EF9757;" d="M191.285,216.714c-1.149,0.167-2.052,1.306-2.005,2.466c0.047,1.16,0.995,2.204,2.137,2.415
							c1.141,0.211,2.372-0.392,2.954-1.397c-0.94,0.52-2.227,0.299-2.939-0.505C190.718,218.889,190.654,217.584,191.285,216.714z"
							/>
						<path style="fill:#6E1E01;" d="M172.197,214.899c-1.731,0.762-3.045,2.515-3.065,4.405c-0.02,1.891,1.405,3.759,3.275,4.037
							C170.558,221.05,170.447,217.266,172.197,214.899z"/>
						<path style="fill:#6E1E01;" d="M168.185,207.703c-1.596-0.581-2.681-2.258-2.701-3.957c-0.02-1.699,0.951-3.34,2.371-4.271
							c1.421-0.931,3.236-1.179,4.895-0.816c-1.884,0.301-3.765,1.809-4.57,3.539C167.374,203.928,167.201,206.068,168.185,207.703z
							"/>
						<path style="fill:#6E1E01;" d="M182.105,207.962c-1.124-0.717-2.041-1.803-2.407-3.086s-0.132-2.756,0.734-3.769
							c0.867-1.014,2.381-1.471,3.618-0.973c-1.214,0.751-1.952,2.171-2.332,3.547C181.337,205.057,181.448,206.694,182.105,207.962
							z"/>
						<path style="fill:#6E1E01;" d="M183.783,226.996c-1.12-0.319-2.266-0.65-3.212-1.33c-0.946-0.68-1.669-1.79-1.566-2.95
							c0.105-1.176,0.994-2.111,1.833-2.942C180.271,222.405,181.547,225.496,183.783,226.996z"/>
						<path style="fill:#6E1E01;" d="M187.437,190.604c-0.619-0.945-0.539-2.271,0.126-3.184c0.666-0.913,1.85-1.393,2.975-1.283
							c1.125,0.11,2.164,0.775,2.809,1.703c-1.147-0.477-2.519-0.199-3.652,0.311C188.562,188.662,187.839,189.429,187.437,190.604z
							"/>
						<path style="fill:#6E1E01;" d="M174.814,192.003c-0.426-1.553,0.263-3.344,1.62-4.211c1.357-0.867,3.272-0.739,4.502,0.3
							c-1.537,0.358-3.038,1.052-4.348,1.933C175.863,190.512,174.716,191.135,174.814,192.003z"/>
						<path style="fill:#6E1E01;" d="M201.42,209.337c0,0-1.837-5.876,0.816-5.391c2.653,0.485,3.646,2.368,3.646,2.368
							S200.893,202.909,201.42,209.337z"/>
						<path style="fill:#6E1E01;" d="M201.853,200.584c-1.598,0.932-2.908,2.35-3.711,4.016c-0.059-1.016,0.312-2.049,1.002-2.797
							C199.835,201.057,200.836,200.606,201.853,200.584z"/>
						<path style="fill:#FFFFFF;" d="M203.341,213.309l8.13-1.174c0,0,0.197,7.436-3.112,7.857
							C205.552,220.35,203.341,213.309,203.341,213.309z"/>
					</g>
					<path style="fill:#EF9757;" d="M245.188,243.501c-0.208-0.294-3.257-4.445-8.682-5.327l3.147-1.041
						C239.653,237.134,243.277,238.518,245.188,243.501z"/>
					<path style="fill:#075A75;" d="M322.684,209.337l-1.467,43.407c0,0,1.026,1.446,3.214,1.327l1.61,25.647l2.514,0.054
						l-2.135-27.993c0,0-1.366,0.169-3.214-1.531L322.684,209.337z"/>
					<path style="fill:#EF9757;" d="M289.686,179.91c0,0,6.826-2.953,9.796-7.724c0,0-2.704,10.153-9.388,12.653L289.686,179.91z"/>
					<path style="fill:#EF9757;" d="M303.76,160.552c0.544-0.694,1.755-0.603,2.293,0.096c0.538,0.699,0.401,1.779-0.197,2.427
						c-0.598,0.648-1.556,0.887-2.428,0.751c0.736-0.116,1.353-0.768,1.428-1.509C304.932,161.575,304.458,160.813,303.76,160.552z"
						/>
					<path style="fill:#6E1E01;" d="M286.319,162.514c0,0.745-0.411,1.349-0.918,1.349s-0.918-0.604-0.918-1.349
						c0-0.745,0.411-1.349,0.918-1.349S286.319,161.769,286.319,162.514z"/>
					<path style="fill:#6E1E01;" d="M275.949,162.514c0,0.745-0.411,1.349-0.918,1.349s-0.918-0.604-0.918-1.349
						c0-0.745,0.411-1.349,0.918-1.349S275.949,161.769,275.949,162.514z"/>
					<path style="fill:#EF9757;" d="M276.647,169.132c-0.009,0.651,0.716,1.15,1.359,1.046c0.643-0.104,1.139-0.67,1.329-1.293
						c0.19-0.623,0.124-1.294,0.002-1.934c-0.122-0.64-0.298-1.274-0.324-1.924C278.72,166.61,277.87,168.085,276.647,169.132z"/>
					<path style="fill:#FFFFFF;" d="M279.89,173.87c0,0,6.276,0.448,9.26-4.062c0,0-0.995,5.133-4.362,5.822
						S279.89,173.87,279.89,173.87z"/>
					<path style="fill:#6E1E01;" d="M283.411,159.023c0.891-0.587,2.029-0.784,3.065-0.529c1.036,0.255,1.953,0.958,2.47,1.892
						C287.268,159.344,285.381,158.878,283.411,159.023z"/>
					<path style="fill:#6E1E01;" d="M277.798,159.376c-0.891-0.588-2.029-0.784-3.065-0.529c-1.036,0.255-1.953,0.958-2.47,1.891
						C273.941,159.696,275.829,159.23,277.798,159.376z"/>
				</g>
				<g>
					<rect x="172.435" y="356.474" style="fill:#465A70;" width="86.541" height="59.082"/>
					<g>
						<polygon style="fill:#5C7794;" points="323.015,378.515 269.601,415.557 293.293,415.557 346.707,378.515 						"/>
						<polygon style="fill:#465A70;" points="356.362,381.468 356.362,378.515 346.707,378.515 293.293,415.557 316.985,415.557 
							366.142,381.468 						"/>
					</g>
					<path style="fill:#5C7794;" d="M101.976,443.108H316.68c3.351,0,6.068-2.717,6.068-6.068v-16.333
						c0-3.351-2.717-6.068-6.068-6.068H101.976c-3.351,0-6.068,2.717-6.068,6.068v16.333
						C95.908,440.391,98.625,443.108,101.976,443.108z"/>
					<polygon style="fill:#465A70;" points="119.411,443.108 172.983,443.108 161.669,415.557 130.726,415.557 					"/>
					<polygon style="fill:#465A70;" points="245.264,443.108 298.836,443.108 287.521,415.557 256.578,415.557 					"/>
					<g>
						<circle style="fill:#3D4359;" cx="272.947" cy="450.934" r="21.602"/>
						<circle style="fill:#F8E2EF;" cx="272.947" cy="450.934" r="10.581"/>
					</g>
					<g>
						<circle style="fill:#3D4359;" cx="146.197" cy="450.934" r="21.602"/>
						<circle style="fill:#F8E2EF;" cx="146.197" cy="450.934" r="10.581"/>
					</g>
					<g>
						<polygon style="fill:#465A70;" points="448.284,400.226 445.578,410.157 443.57,417.553 272.947,371.058 274.968,363.662 
							277.674,353.719 						"/>
						<polygon style="fill:#5C7794;" points="448.284,400.226 445.578,410.157 274.968,363.662 277.674,353.719 						"/>
						<path style="fill:#7597BC;" d="M481.314,282.732c-8.401-2.29-17.068,2.665-19.358,11.066l-33.554,123.116l18.406,5.016
							c3.593,0.979,7.299-1.139,8.278-4.732l35.927-131.823L481.314,282.732z M475.553,318.814
							c-7.233-1.971-11.498-9.433-9.527-16.666l1.837-6.74c1.401-5.139,6.702-8.17,11.842-6.769l3.791,1.033L475.553,318.814z"/>
					</g>
					<g>
						<g>
							<rect x="119.786" y="385.556" style="fill:#7597BC;" width="52.649" height="30"/>
							<g>
								<rect x="119.786" y="406.968" style="fill:#465A70;" width="52.649" height="3.537"/>
								<rect x="119.786" y="398.788" style="fill:#465A70;" width="52.649" height="3.537"/>
								<rect x="119.786" y="390.607" style="fill:#465A70;" width="52.649" height="3.537"/>
							</g>
						</g>
					</g>
					<g>
						<g>
							<rect x="256.082" y="385.556" style="fill:#7597BC;" width="31.935" height="30"/>
							<g>
								<rect x="256.082" y="406.968" style="fill:#465A70;" width="31.935" height="3.537"/>
								<rect x="256.082" y="398.788" style="fill:#465A70;" width="31.935" height="3.537"/>
								<rect x="256.082" y="390.607" style="fill:#465A70;" width="31.935" height="3.537"/>
							</g>
						</g>
					</g>
					<g>
						<path style="fill:#7597BC;" d="M172.609,385.556h-52.823c-8.284,0-15-6.716-15-15v-14.082h82.823v14.082
							C187.609,378.841,180.893,385.556,172.609,385.556z"/>
						<path style="fill:#465A70;" d="M119.786,378.209c-4.22,0-7.653-3.433-7.653-7.653v-14.082h68.129v14.082
							c0,4.22-3.433,7.653-7.653,7.653H119.786z"/>
					</g>
					<g>
						<path style="fill:#7597BC;" d="M287.539,385.556H256.56c-8.284,0-15-6.716-15-15v-22.653h60.979v22.653
							C302.539,378.841,295.823,385.556,287.539,385.556z"/>
						<path style="fill:#465A70;" d="M256.56,378.209c-4.22,0-7.653-3.433-7.653-7.653v-22.653h46.285v22.653
							c0,4.22-3.433,7.653-7.653,7.653H256.56z"/>
					</g>
					<path style="fill:#5C7794;" d="M302.102,286.677h-127.52c-38.548,0-69.797,31.249-69.797,69.797v0h175.326
						c19.904,0,36.039-16.135,36.039-36.039v-19.709C316.151,292.967,309.861,286.677,302.102,286.677z M306.355,320.436
						c0,14.493-11.749,26.243-26.243,26.243h-6.344c-2.705,0-4.898-2.193-4.898-4.898v-40.409c0-2.705,2.193-4.898,4.898-4.898
						h28.335c2.349,0,4.252,1.904,4.252,4.252V320.436z"/>
					<g>
						<path style="fill:#D6DEF1;" d="M149.856,338.618h42.584c3.551,0,6.429-2.879,6.429-6.429v-23.981
							c0-3.551-2.879-6.429-6.429-6.429h-42.584c-3.551,0-6.429,2.878-6.429,6.429v23.981
							C143.426,335.74,146.305,338.618,149.856,338.618z"/>
						<path style="fill:#12BAC7;" d="M149.856,334.945c-1.519,0-2.756-1.237-2.756-2.756v-23.981c0-1.52,1.236-2.756,2.756-2.756
							h42.584c1.519,0,2.756,1.236,2.756,2.756v23.981c0,1.52-1.236,2.756-2.756,2.756H149.856z"/>
					</g>
					<g>
						<path style="fill:#D6DEF1;" d="M215.061,338.618h42.584c3.551,0,6.429-2.879,6.429-6.429v-23.981
							c0-3.551-2.878-6.429-6.429-6.429h-42.584c-3.551,0-6.429,2.878-6.429,6.429v23.981
							C208.631,335.74,211.51,338.618,215.061,338.618z"/>
						<g>
							<g>
								<path style="fill:#FF7CB5;" d="M219.904,309.637c0,1.805-1.463,3.267-3.267,3.267c-1.805,0-3.267-1.463-3.267-3.267
									c0-1.804,1.463-3.267,3.267-3.267C218.441,306.37,219.904,307.833,219.904,309.637z"/>
								<path style="fill:#179DE4;" d="M233.048,309.637c0,1.805-1.463,3.267-3.267,3.267c-1.804,0-3.267-1.463-3.267-3.267
									c0-1.804,1.463-3.267,3.267-3.267C231.585,306.37,233.048,307.833,233.048,309.637z"/>
								<path style="fill:#FF7CB5;" d="M246.192,309.637c0,1.805-1.463,3.267-3.267,3.267c-1.804,0-3.267-1.463-3.267-3.267
									c0-1.804,1.463-3.267,3.267-3.267C244.729,306.37,246.192,307.833,246.192,309.637z"/>
								<path style="fill:#A3388A;" d="M259.335,309.637c0,1.805-1.463,3.267-3.267,3.267c-1.804,0-3.267-1.463-3.267-3.267
									c0-1.804,1.463-3.267,3.267-3.267C257.872,306.37,259.335,307.833,259.335,309.637z"/>
							</g>
							<g>
								<path style="fill:#FF7CB5;" d="M219.904,330.759c0,1.804-1.463,3.267-3.267,3.267c-1.805,0-3.267-1.463-3.267-3.267
									c0-1.805,1.463-3.267,3.267-3.267C218.441,327.492,219.904,328.955,219.904,330.759z"/>
								<path style="fill:#A3388A;" d="M233.048,330.759c0,1.804-1.463,3.267-3.267,3.267c-1.804,0-3.267-1.463-3.267-3.267
									c0-1.805,1.463-3.267,3.267-3.267C231.585,327.492,233.048,328.955,233.048,330.759z"/>
								<path style="fill:#179DE4;" d="M246.192,330.759c0,1.804-1.463,3.267-3.267,3.267c-1.804,0-3.267-1.463-3.267-3.267
									c0-1.805,1.463-3.267,3.267-3.267C244.729,327.492,246.192,328.955,246.192,330.759z"/>
								<path style="fill:#A3388A;" d="M259.335,330.759c0,1.804-1.463,3.267-3.267,3.267c-1.804,0-3.267-1.463-3.267-3.267
									c0-1.805,1.463-3.267,3.267-3.267C257.872,327.492,259.335,328.955,259.335,330.759z"/>
							</g>
						</g>
						<g>
							<path style="fill:#179DE4;" d="M219.32,323.044h-4.235c-1.571,0-2.845-1.274-2.845-2.845l0,0
								c0-1.572,1.274-2.845,2.845-2.845h4.235c1.571,0,2.845,1.274,2.845,2.845l0,0C222.165,321.77,220.891,323.044,219.32,323.044
								z"/>
							<path style="fill:#A3388A;" d="M232.087,323.044h-4.235c-1.572,0-2.845-1.274-2.845-2.845l0,0
								c0-1.572,1.274-2.845,2.845-2.845h4.235c1.571,0,2.845,1.274,2.845,2.845l0,0
								C234.932,321.77,233.658,323.044,232.087,323.044z"/>
							<path style="fill:#A3388A;" d="M244.853,323.044h-4.235c-1.572,0-2.845-1.274-2.845-2.845l0,0
								c0-1.572,1.274-2.845,2.845-2.845h4.235c1.572,0,2.845,1.274,2.845,2.845l0,0
								C247.699,321.77,246.425,323.044,244.853,323.044z"/>
							<path style="fill:#179DE4;" d="M257.62,323.044h-4.235c-1.571,0-2.845-1.274-2.845-2.845l0,0
								c0-1.572,1.274-2.845,2.845-2.845h4.235c1.572,0,2.845,1.274,2.845,2.845l0,0C260.466,321.77,259.192,323.044,257.62,323.044
								z"/>
						</g>
					</g>
					<g>
						<path style="fill:#5C7794;" d="M130.878,253.841l-64.831-65.355c-12.78-12.883-33.584-12.967-46.467-0.187L4.367,203.39
							c-2.641,2.62-2.658,6.884-0.038,9.524l101.625,102.446c2.619,2.641,6.884,2.658,9.524,0.038l15.213-15.091
							C143.574,287.528,143.658,266.724,130.878,253.841z M40.466,229.349L17.344,206.04l9.997-9.917
							c8.548-8.48,22.403-8.425,30.882,0.124l7.743,7.805L40.466,229.349z M82.049,271.268l-33.822-34.096l25.501-25.296
							l33.822,34.096L82.049,271.268z M112.932,302.401l-23.122-23.308l25.501-25.296l7.743,7.806
							c8.48,8.548,8.423,22.403-0.125,30.882L112.932,302.401z"/>
					</g>
				</g>
			</g>
		</g>
	</g>
</g>
<g id="DESIGNED_BY_FREEPIK">
	<g>
		<g id="XMLID_57_">
			<g id="XMLID_76_">
				<path id="XMLID_84_" style="fill:#102028;" d="M260.104,465.465c-0.432,0.443-0.803,0.931-1.108,1.453l-0.465-0.241
					c-0.067-0.298-0.349-0.503-0.659-0.466c-0.331,0.039-0.568,0.339-0.529,0.67s0.339,0.568,0.67,0.529
					c0.065-0.008,0.127-0.026,0.184-0.052l0.451,0.234c-0.251,0.554-0.433,1.139-0.539,1.744l0.746,0.132
					c0.23-1.306,0.85-2.507,1.792-3.473L260.104,465.465z"/>
				<path id="XMLID_83_" style="fill:#102028;" d="M265.592,463.163c-0.171,0-0.341,0.006-0.51,0.017l-0.074-0.626
					c0.188-0.149,0.296-0.389,0.266-0.645c-0.046-0.393-0.402-0.674-0.795-0.628s-0.674,0.402-0.628,0.795
					c0.03,0.254,0.189,0.461,0.405,0.564l0.073,0.624c-0.714,0.116-1.403,0.332-2.06,0.646l0.327,0.684
					c0.934-0.447,1.942-0.673,2.995-0.673c0.496,0,0.993,0.053,1.475,0.158l0.161-0.741
					C266.693,463.222,266.142,463.163,265.592,463.163z"/>
				<path id="XMLID_82_" style="fill:#102028;" d="M272.194,465.711c0.331-0.04,0.566-0.341,0.525-0.672
					c-0.04-0.331-0.341-0.566-0.672-0.526c-0.309,0.038-0.535,0.304-0.53,0.609l-0.416,0.363c-0.418-0.43-0.89-0.813-1.408-1.139
					l-0.404,0.641c1.134,0.715,2.021,1.726,2.563,2.925l0.69-0.313c-0.251-0.554-0.568-1.072-0.942-1.545l0.402-0.351
					C272.065,465.716,272.129,465.719,272.194,465.711z"/>
				<path id="XMLID_81_" style="fill:#102028;" d="M265.044,473.372c-0.386,0.023-0.775,0.035-1.157,0.035
					c-0.88,0-1.733-0.061-2.478-0.179c-0.39-0.062-0.846-0.155-1.27-0.292c1.046,1.861,3.069,3.125,5.388,3.125
					c2.855,0,5.262-1.916,5.95-4.504c-0.682,0.449-1.505,0.825-2.459,1.123C267.839,473.047,266.464,473.286,265.044,473.372z"/>
				<path id="XMLID_77_" style="fill:#102028;" d="M265.592,464.68c-3.352,0-6.08,2.666-6.08,5.943c0,0.426,0.046,0.849,0.137,1.261
					c0.674,0.483,2.706,0.89,5.348,0.731c2.879-0.173,5.297-0.957,6.672-2.159c-0.005-0.195-0.021-0.39-0.045-0.582
					C271.244,466.913,268.65,464.68,265.592,464.68z M263.432,471.194c-1.02,0-1.85-0.83-1.85-1.85c0-1.02,0.83-1.85,1.85-1.85
					c1.02,0,1.85,0.83,1.85,1.85C265.282,470.365,264.452,471.194,263.432,471.194z M268.17,470.286c-0.75,0-1.36-0.61-1.36-1.36
					s0.61-1.361,1.36-1.361c0.75,0,1.361,0.61,1.361,1.361S268.92,470.286,268.17,470.286z"/>
			</g>
			<path id="XMLID_74_" style="fill:#102028;" d="M281.595,466.547c-0.295-0.116-0.806-0.309-1.382-0.237
				c-0.551,0.069-0.844,0.341-0.844,1.007v0.866h2.228v1.717h-2.228v5.455h-1.932v-5.455h-1.34v-1.717h1.34v-0.888
				c0-1.68,0.895-2.783,2.568-2.783c0.642,0,1.157,0.122,1.59,0.308L281.595,466.547z"/>
			<path id="XMLID_72_" style="fill:#102028;" d="M286.298,469.879c-0.177-0.03-0.358-0.046-0.526-0.046
				c-0.896,0-1.51,0.548-1.51,1.614v3.908h-1.932v-7.172h1.873v0.785c0.451-0.673,1.14-0.977,2.021-0.977
				c0.414,0,0.848,0.128,1.094,0.337L286.298,469.879z"/>
			<path id="XMLID_69_" style="fill:#102028;" d="M293.965,471.757c0,0.222-0.015,0.489-0.037,0.651h-5.085
				c0.207,1.036,0.933,1.488,1.843,1.488c0.622,0,1.295-0.252,1.813-0.688l1.133,1.243c-0.814,0.748-1.85,1.088-3.057,1.088
				c-2.198,0-3.723-1.495-3.723-3.753c0-2.258,1.48-3.797,3.626-3.797C292.544,467.99,293.958,469.522,293.965,471.757z
				 M288.851,471.091h3.175c-0.178-0.918-0.733-1.436-1.562-1.436C289.554,469.655,289.021,470.203,288.851,471.091z"/>
			<path id="XMLID_66_" style="fill:#102028;" d="M301.618,471.757c0,0.222-0.015,0.489-0.037,0.651h-5.085
				c0.207,1.036,0.932,1.488,1.843,1.488c0.622,0,1.295-0.252,1.813-0.688l1.132,1.243c-0.814,0.748-1.85,1.088-3.057,1.088
				c-2.198,0-3.723-1.495-3.723-3.753c0-2.258,1.48-3.797,3.627-3.797C300.197,467.99,301.611,469.522,301.618,471.757z
				 M296.504,471.091h3.175c-0.178-0.918-0.733-1.436-1.562-1.436C297.207,469.655,296.674,470.203,296.504,471.091z"/>
			<path id="XMLID_63_" style="fill:#102028;" d="M309.964,471.764c0,2.154-1.495,3.775-3.471,3.775
				c-0.962,0-1.643-0.378-2.109-0.933v3.708h-1.924v-10.133h1.887v0.792c0.466-0.585,1.155-0.984,2.139-0.984
				C308.469,467.99,309.964,469.61,309.964,471.764z M304.287,471.764c0,1.132,0.747,1.976,1.843,1.976
				c1.14,0,1.85-0.881,1.85-1.976c0-1.095-0.711-1.976-1.85-1.976C305.035,469.788,304.287,470.632,304.287,471.764z"/>
			<path id="XMLID_60_" style="fill:#102028;" d="M313.068,465.836c0,0.696-0.54,1.229-1.236,1.229
				c-0.696,0-1.229-0.533-1.229-1.229c0-0.696,0.533-1.243,1.229-1.243C312.527,464.592,313.068,465.14,313.068,465.836z
				 M312.809,475.354h-1.932v-7.172h1.932V475.354z"/>
			<path id="XMLID_58_" style="fill:#102028;" d="M316.032,470.736l2.702-2.554h2.368l-3.479,3.375l3.501,3.797h-2.376l-2.716-2.901
				v2.901H314.1v-10.658h1.932V470.736z"/>
		</g>
		<g>
			<path style="fill:#102028;" d="M184.412,475.289v-1.055c-0.527,0.718-1.391,1.23-2.387,1.23c-1.846,0-3.149-1.406-3.149-3.706
				c0-2.256,1.289-3.721,3.149-3.721c0.952,0,1.816,0.469,2.387,1.245v-3.765h1.099v9.77H184.412z M184.412,473.37v-3.208
				c-0.395-0.615-1.245-1.143-2.124-1.143c-1.421,0-2.27,1.172-2.27,2.739c0,1.567,0.85,2.724,2.27,2.724
				C183.168,474.483,184.017,473.986,184.412,473.37z"/>
			<path style="fill:#102028;" d="M186.932,471.744c0-2.051,1.465-3.706,3.486-3.706c2.139,0,3.398,1.67,3.398,3.794v0.279h-5.727
				c0.088,1.333,1.025,2.446,2.549,2.446c0.806,0,1.626-0.322,2.182-0.894l0.527,0.718c-0.703,0.703-1.655,1.084-2.812,1.084
				C188.441,475.465,186.932,473.956,186.932,471.744z M190.404,468.947c-1.509,0-2.256,1.274-2.314,2.358h4.643
				C192.718,470.25,192.015,468.947,190.404,468.947z"/>
			<path style="fill:#102028;" d="M194.607,474.351l0.571-0.791c0.469,0.542,1.362,1.011,2.329,1.011c1.084,0,1.67-0.513,1.67-1.216
				c0-1.714-4.38-0.659-4.38-3.281c0-1.098,0.952-2.036,2.636-2.036c1.201,0,2.051,0.454,2.622,1.026l-0.513,0.762
				c-0.424-0.513-1.201-0.894-2.109-0.894c-0.967,0-1.567,0.483-1.567,1.113c0,1.552,4.38,0.527,4.38,3.281
				c0,1.187-0.952,2.138-2.783,2.138C196.306,475.465,195.325,475.113,194.607,474.351z"/>
			<path style="fill:#102028;" d="M201.477,466.471c0-0.41,0.337-0.747,0.732-0.747c0.41,0,0.747,0.337,0.747,0.747
				c0,0.41-0.337,0.732-0.747,0.732C201.814,467.203,201.477,466.881,201.477,466.471z M201.667,475.289v-7.075h1.099v7.075H201.667
				z"/>
			<path style="fill:#102028;" d="M204.582,477.105l0.556-0.82c0.586,0.703,1.289,0.967,2.3,0.967c1.172,0,2.27-0.571,2.27-2.124
				v-1.011c-0.513,0.718-1.377,1.26-2.373,1.26c-1.845,0-3.149-1.377-3.149-3.662c0-2.27,1.289-3.677,3.149-3.677
				c0.952,0,1.802,0.469,2.373,1.245v-1.069h1.099v6.87c0,2.344-1.641,3.076-3.369,3.076
				C206.237,478.16,205.417,477.926,204.582,477.105z M209.709,473.253v-3.091c-0.381-0.615-1.23-1.143-2.109-1.143
				c-1.421,0-2.27,1.128-2.27,2.695c0,1.553,0.849,2.695,2.27,2.695C208.478,474.41,209.328,473.868,209.709,473.253z"/>
			<path style="fill:#102028;" d="M217.413,475.289v-4.629c0-1.245-0.63-1.641-1.582-1.641c-0.865,0-1.685,0.527-2.095,1.099v5.17
				h-1.099v-7.075h1.099v1.025c0.498-0.586,1.464-1.201,2.519-1.201c1.48,0,2.256,0.747,2.256,2.285v4.966H217.413z"/>
			<path style="fill:#102028;" d="M219.932,471.744c0-2.051,1.465-3.706,3.486-3.706c2.139,0,3.398,1.67,3.398,3.794v0.279h-5.727
				c0.088,1.333,1.025,2.446,2.549,2.446c0.806,0,1.626-0.322,2.183-0.894l0.527,0.718c-0.703,0.703-1.655,1.084-2.812,1.084
				C221.441,475.465,219.932,473.956,219.932,471.744z M223.404,468.947c-1.509,0-2.256,1.274-2.314,2.358h4.643
				C225.718,470.25,225.015,468.947,223.404,468.947z"/>
			<path style="fill:#102028;" d="M233.35,475.289v-1.055c-0.527,0.718-1.392,1.23-2.388,1.23c-1.846,0-3.149-1.406-3.149-3.706
				c0-2.256,1.289-3.721,3.149-3.721c0.952,0,1.817,0.469,2.388,1.245v-3.765h1.098v9.77H233.35z M233.35,473.37v-3.208
				c-0.396-0.615-1.245-1.143-2.124-1.143c-1.421,0-2.27,1.172-2.27,2.739c0,1.567,0.849,2.724,2.27,2.724
				C232.105,474.483,232.954,473.986,233.35,473.37z"/>
			<path style="fill:#102028;" d="M239.692,475.289v-9.77h1.098v3.765c0.572-0.776,1.421-1.245,2.388-1.245
				c1.845,0,3.149,1.465,3.149,3.721c0,2.299-1.304,3.706-3.149,3.706c-0.996,0-1.86-0.513-2.388-1.23v1.055H239.692z
				 M242.9,474.483c1.436,0,2.286-1.157,2.286-2.724c0-1.568-0.85-2.739-2.286-2.739c-0.864,0-1.728,0.527-2.109,1.143v3.208
				C241.171,473.986,242.036,474.483,242.9,474.483z"/>
			<path style="fill:#102028;" d="M247.529,477.061c0.161,0.073,0.425,0.117,0.601,0.117c0.483,0,0.805-0.161,1.055-0.747
				l0.469-1.069l-2.959-7.148h1.187l2.358,5.8l2.344-5.8h1.201l-3.545,8.51c-0.425,1.025-1.143,1.421-2.08,1.435
				c-0.234,0-0.601-0.044-0.805-0.103L247.529,477.061z"/>
		</g>
	</g>
</g>
</svg>
