<?xml version="1.0" encoding="utf-8"?>
<!-- Generator: Adobe Illustrator 27.5.0, SVG Export Plug-In . SVG Version: 6.00 Build 0)  -->
<svg version="1.1" xmlns="http://www.w3.org/2000/svg" xmlns:xlink="http://www.w3.org/1999/xlink" x="0px" y="0px"
	 viewBox="0 0 499.999 500" style="enable-background:new 0 0 499.999 500;" xml:space="preserve">
<g id="BACKGROUND">
	<g style="opacity:0.3;">
		<path style="fill:#B7D9EA;" d="M427.614,394.602c0-5.358-37.733-9.702-84.278-9.702c-32.813,0-61.226,2.16-75.146,5.312
			c-7.783-3.538-35.62-6.156-68.773-6.156c-39.182,0-70.946,3.656-70.946,8.167c0,4.51,31.764,8.166,70.946,8.166
			c25.999,0,48.719-1.61,61.074-4.012c3.866,2.406,15.431,4.5,31.658,5.931c-13.311-0.359-27.219-0.551-41.539-0.551
			c-95.868,0-173.588,8.531-173.588,19.058c0,10.525,77.72,19.057,173.588,19.057c95.87,0,173.588-8.531,173.588-19.057
			c0-7.079-35.15-13.256-87.332-16.542c2.138,0.019,4.29,0.031,6.47,0.031C389.88,404.303,427.614,399.96,427.614,394.602z"/>
	</g>
</g>
<g id="OBJECTS">
	<g>
		<g>
			<g>
				<g>
					<g>
						<path style="fill:#8EC1B9;" d="M332.706,371.378c-4.53,12.23-24.912,6.567-22.194,18.571c13.136,0,40.765,0,40.765,0
							s1.132-14.721-1.358-19.023L332.706,371.378z"/>
					</g>
					<g>
						<g>
							<path style="fill:#6F9EC9;" d="M325.988,242.444c-1.512,6.944,0,15.701,0,22.949c0,12.379,0.301,25.061,0.603,37.441
								c0.303,12.683,0,25.969,0.906,38.65c0.303,3.321,1.51,6.342,1.209,9.361c-0.303,1.509-2.115,2.416-2.115,3.926
								c0,2.112,1.813,3.019,2.115,4.529c1.207,7.549-1.527,13.256-1.527,13.256c5.738,1.511,14.811,0.937,19.945,1.539
								c-1.811-14.493-0.905-28.988-1.511-43.482c-0.603-18.417-2.112-36.535-2.414-54.653c-0.303-9.965-2.416-22.947,0-32.31
								L325.988,242.444z"/>
						</g>
						<g>
							<path style="fill:#547E9E;" d="M332.277,367.774c1.475,0.632,3.051,0.922,4.625,1.153c1.576,0.219,3.181,0.397,4.754,0.742
								c1.565,0.318,3.129,0.62,4.692,0.743c0.779,0.053,1.562,0.078,2.306-0.012c0.734-0.087,1.465-0.326,1.802-0.809l0.093,0.612
								c-1.171-0.843-2.758-1.166-4.286-1.464c-1.549-0.302-3.143-0.477-4.729-0.989c-1.534-0.547-3.011-1.138-4.477-1.817
								c-1.46-0.679-2.884-1.45-4.233-2.341l-1.118-0.737l1.33-0.046c2.721-0.094,5.409,0.168,8.082,0.316
								c1.338,0.067,2.673,0.151,4.011,0.137c1.337-0.013,2.676-0.1,4.007-0.286c-1.308,0.315-2.648,0.496-3.994,0.592
								s-2.697,0.132-4.043,0.102c-2.691-0.049-5.372-0.173-8.022-0.009l0.212-0.783c2.637,1.694,5.583,2.92,8.545,3.94
								c1.46,0.434,3.039,0.667,4.611,0.984c1.56,0.339,3.211,0.649,4.646,1.693l0.361,0.262l-0.268,0.351
								c-0.641,0.84-1.611,1.046-2.43,1.147c-0.846,0.097-1.672,0.045-2.482-0.05c-1.622-0.192-3.193-0.564-4.748-0.946
								c-1.541-0.394-3.111-0.642-4.685-0.982C335.276,368.941,333.687,368.549,332.277,367.774z"/>
						</g>
						<g>
							<path style="fill:#547E9E;" d="M333.574,359.086c1.811-0.392,3.656-0.342,5.463-0.153c1.806,0.222,3.598,0.591,5.299,1.32
								c-1.848,0.05-3.628-0.137-5.412-0.327C337.14,359.707,335.376,359.484,333.574,359.086z"/>
						</g>
					</g>
				</g>
				<g>
					<g>
						<path style="fill:#A2DDD4;" d="M349.238,378.022c1.812,5.435-8.194,7.294-11.887,8.771c-2.887,1.154-9.757-0.315-9.055,10.99
							c0,0,5.24-0.134,8.862-0.134c6.039,0.303,23.853,0,26.874,0c4.529,0,3.927,0.15,4.53-3.773
							c0.604-3.928,0.604-12.229-0.906-15.249L349.238,378.022z"/>
					</g>
					<g>
						<g>
							<path style="fill:#82B5DB;" d="M335.045,226.742c0,20.834,2.416,41.066,3.02,61.901c0.302,12.683,1.208,25.063,2.114,37.744
								c0.302,5.738,3.02,12.078,2.416,17.815c-0.907,4.228-2.114,6.04-0.907,9.965c1.511,5.134,1.813,5.736,0.907,10.266
								c-0.605,4.228,0.526,5.738,0.526,9.663c0,4.53-1.925,7.134-1.925,7.134c5.134,3.623,16.193,3.737,22.232,4.038
								c2.113,0,8.757-0.905,8.757-0.905c1.509-1.511,1.208-8.454,0.906-10.267c-0.906-4.227-3.322-4.832-4.529-8.152
								c-0.905-3.323,0.905-6.946,1.509-9.965c1.511-7.247-2.414-13.588-1.81-20.533c0.603-7.85,0.302-15.098,0.603-22.948
								c0.906-15.702,1.512-31.404,2.114-47.104c0.604-15.4,0-30.498-0.302-45.898c-9.664-0.905-24.76-1.811-33.518,0
								L335.045,226.742z"/>
						</g>
						<g>
							<path style="fill:#547E9E;" d="M366.902,379.758c-1.819,0.561-3.741,0.695-5.637,0.775c-1.902,0.071-3.81,0.003-5.708-0.183
								c-1.897-0.184-3.791-0.469-5.656-0.94c-0.933-0.235-1.857-0.526-2.753-0.917c-0.892-0.394-1.778-0.865-2.529-1.592
								l-0.666-0.646l0.924-0.112c1.877-0.227,3.704-0.155,5.529-0.136c1.823,0.039,3.638,0.059,5.443,0.033
								c1.803-0.034,3.605-0.148,5.34-0.52c1.709-0.374,3.432-1.04,4.463-2.368l0.15,0.648c-1.432-0.719-3.037-1.089-4.672-1.246
								c-1.638-0.159-3.306-0.131-4.978-0.105c-1.671,0.034-3.359,0.038-5.038-0.142c-1.671-0.177-3.352-0.568-4.822-1.383
								c1.531,0.689,3.193,0.978,4.849,1.064c1.66,0.087,3.323-0.025,4.994-0.1c1.67-0.082,3.354-0.17,5.055-0.063
								c1.691,0.107,3.429,0.418,4.999,1.203l0.468,0.233l-0.318,0.414c-1.234,1.608-3.154,2.327-4.948,2.747
								c-1.829,0.413-3.681,0.547-5.518,0.604c-1.839,0.061-3.669-0.021-5.488-0.067c-1.814-0.041-3.645-0.127-5.393,0.068
								l0.258-0.758c1.255,1.209,3.103,1.83,4.86,2.372c1.794,0.518,3.649,0.863,5.516,1.107c1.867,0.236,3.751,0.38,5.638,0.428
								C363.147,380.204,365.049,380.168,366.902,379.758z"/>
						</g>
						<g>
							<path style="fill:#547E9E;" d="M348.558,366.169c2.562,0.585,5.076,0.874,7.636,0.858c2.555,0.021,5.132-0.234,7.764-0.178
								c-2.521,0.726-5.114,1.169-7.767,1.178C353.556,368.02,350.841,367.499,348.558,366.169z"/>
						</g>
					</g>
				</g>
			</g>
			<g>
				<g>
					<g>
						<path style="fill:#6F9EC9;" d="M304.849,160.161c1.059,3.623,1.51,7.548,2.417,11.323c0.603,2.718,1.51,6.039,3.17,8.304
							c2.718,3.926,4.077,1.208,4.077-2.265c0-3.624-0.454-7.096-0.906-10.568c-0.151-1.963-0.151-7.096-1.359-8.153
							L304.849,160.161z"/>
					</g>
					<g>
						<g>
							<path style="fill:#E59F89;" d="M315.274,151.053c0,0-12.666,7.417-19.999,7.749c-7.667,0.332-20.222-10.582-26.316-14.435
								c-7.23-4.571-11.348-10.99-15.683-7.657c-4.667,3.999,26.33,26.67,32.662,31.005c3.333,2.667,4.333,4.334,8.333,3.668
								c3-0.333,7-1.999,9.667-2.999c5.334-1.999,12.431-4.287,16.765-7.62L315.274,151.053z"/>
						</g>
						<g>
							<path style="fill:#E59F89;" d="M258.525,138.055c-0.5-2.75-2.471-5.078-4.221-7.078c-2.25-3-10.001-11.561-11.78-9.672
								c-1.27,1.167,4.835,5.967,6.085,8.967c-3.864-2.614-9.516-8.243-11.835-6.217c-1.031,1.233,7.438,6.668,9.938,8.668
								c-1.25-0.75-9.188-5.668-10.438-3.418c-1,1.75,7.72,4.28,8.97,5.53c-1.75,0-8.988,0.198-6.47,2.22
								c0.778,0.625,4.796-0.803,7.296,0.947c2.75,2,4.704,5.053,8.205,5.053c2.25,0,4.75-0.75,6.75-0.5L258.525,138.055z"/>
						</g>
						<g>
							<path style="fill:#E59F89;" d="M262.525,140.805c0-2.75-3.25-5.75-5.25-7.5c-1.25-1-6.5-5.75-7.25-2.75
								c-0.25,1.5,2.75,3.5,3.75,4.25v0.25c-1.25,3.5,1.5,6.75,5,8"/>
							<path style="fill:#CC6666;" d="M262.525,140.805c-0.152-1.537-1.064-2.818-2.046-3.934c-0.981-1.137-2.112-2.142-3.279-3.106
								c-1.184-0.931-2.357-1.91-3.612-2.692c-0.619-0.392-1.273-0.758-1.912-0.932c-0.314-0.085-0.624-0.097-0.797-0.015
								c-0.165,0.072-0.294,0.249-0.373,0.548l0.008-0.039c-0.049,0.253,0.107,0.644,0.361,0.993
								c0.251,0.355,0.575,0.691,0.917,1.011c0.689,0.646,1.452,1.217,2.244,1.816l0.178,0.134l-0.003,0.214l-0.004,0.25
								l-0.002,0.081l-0.023,0.064c-0.28,0.755-0.406,1.57-0.285,2.378c0.112,0.807,0.441,1.589,0.911,2.285
								c0.939,1.403,2.369,2.484,3.968,3.192c-0.847-0.233-1.661-0.6-2.411-1.08c-0.748-0.48-1.452-1.064-2.002-1.79
								c-0.555-0.719-0.982-1.564-1.171-2.484c-0.191-0.917-0.132-1.9,0.178-2.791l-0.025,0.145l-0.004-0.25l0.174,0.348
								c-0.784-0.557-1.617-1.126-2.371-1.806c-0.376-0.345-0.742-0.71-1.062-1.151c-0.301-0.434-0.638-0.984-0.545-1.723
								l0.001-0.005l0.007-0.033c0.095-0.431,0.382-0.993,0.939-1.222c0.539-0.218,1.035-0.127,1.448-0.021
								c0.833,0.241,1.515,0.652,2.178,1.076c1.306,0.877,2.466,1.876,3.615,2.904c1.118,1.049,2.212,2.148,3.149,3.383
								c0.458,0.626,0.869,1.29,1.185,2.001C262.373,139.262,262.58,140.038,262.525,140.805z"/>
						</g>
					</g>
					<g>
						<g>
							<path style="fill:#82B5DB;" d="M312.519,181.721c1.584-1.925-3.658-27.592-4.338-29.177c0,0,2.104-0.498,3.236-0.611
								c1.585-0.226,1.585-0.906,2.717-1.925c0.906-1.02,2.264-1.245,3.398-2.038c1.133-0.792,2.266-2.038,3.284-2.944
								c2.265-2.038,4.303-4.077,5.774-6.681c1.585-2.717,3.171-4.869,6.455-5.774c1.472-0.34,4.88-1.122,6.466-1.008
								c0.453,3.396-1.598,8.142-2.05,11.426c-0.453,3.51-0.566,7.134-1.02,10.644c-0.113,1.246,0.113,2.718-0.228,3.85
								c-0.338,1.133-1.358,2.491-2.036,3.51c-1.587,2.491-3.398,4.869-5.097,7.247c-2.605,3.398-5.096,5.662-8.379,8.152
								c-2.151,1.699-5.146,4.991-7.862,5.331H312.519z"/>
						</g>
						<g>
							<path style="fill:#547E9E;" d="M327.647,142.194c0.154,3.654-0.016,7.318,0.163,10.943c0.088,1.793,0.446,3.593,0.554,5.447
								c0.093,1.832,0.058,3.82-0.922,5.582l-0.376,0.676l-0.416-0.664c-0.769-1.227-1.163-2.616-1.411-3.976
								c-0.254-1.366-0.349-2.729-0.475-4.07c-0.127-1.339-0.284-2.665-0.635-3.924c-0.346-1.256-0.914-2.439-1.78-3.381
								l0.584,0.045c-0.977,0.762-1.285,2.198-1.296,3.556c-0.01,1.383,0.23,2.785,0.562,4.157c0.344,1.371,0.761,2.732,1.26,4.065
								c0.509,1.328,1.06,2.648,1.773,3.887c-0.831-1.168-1.473-2.461-2.068-3.765c-0.588-1.31-1.114-2.653-1.506-4.044
								c-0.394-1.388-0.701-2.815-0.751-4.294c-0.019-0.738,0.026-1.493,0.233-2.24c0.197-0.743,0.611-1.483,1.258-2l0.309-0.246
								l0.275,0.292c0.99,1.047,1.64,2.37,2.028,3.714c0.395,1.35,0.571,2.726,0.719,4.079c0.15,1.354,0.26,2.695,0.473,3.999
								c0.218,1.3,0.57,2.57,1.233,3.657l-0.792,0.012c0.848-1.458,0.944-3.3,0.87-5.076c-0.064-1.796-0.327-3.608-0.354-5.469
								C327.101,149.479,327.492,145.845,327.647,142.194z"/>
						</g>
						<g>
							<path style="fill:#547E9E;" d="M317.079,156.688c-0.137,1.243,0.286,2.363,0.884,3.357c0.61,0.994,1.379,1.901,2.212,2.752
								c1.656,1.722,3.535,3.244,5.36,4.912c-1.139-0.492-2.209-1.115-3.227-1.82c-1.02-0.702-1.977-1.502-2.854-2.398
								c-0.858-0.907-1.656-1.913-2.182-3.088C316.74,159.259,316.52,157.829,317.079,156.688z"/>
						</g>
					</g>
				</g>
				<g>
					<g>
						<path style="fill:#94CBED;" d="M320.703,244.784c0-7.247,0.679-11.777,3.623-18.571c2.265-4.981-0.679-8.379,0.453-13.135
							c0.453-2.717,1.812-4.303,1.812-7.246c0-3.171-0.453-6.568-0.226-9.738c0.452-10.418,3.17-20.608,3.397-31.253
							c0.227-5.208,0-10.417,0-15.853c0-3.85,0.493-10.294,2.53-13.691c3.851-5.888,19.437-4.2,25.325-3.747
							c11.55,0.905,19.25,9.059,23.1,19.476c3.397,9.059,4.077,21.968,2.265,31.252c-1.132,5.888-3.17,11.323-3.851,16.985
							c-0.226,2.491-0.905,4.982-0.678,7.474c0.452,2.717,2.942,4.076,3.17,7.02c0.227,2.039-1.586,3.171-2.266,4.756
							c-1.132,2.718-0.679,2.265-0.227,4.756c0.454,3.17,0,6.341,0.454,9.285c0.679,5.662,1.811,13.816,4.302,18.797
							c-5.888,2.492-12.229,3.171-18.57,2.492c-1.132-7.927-1.811-16.759-4.304-24.232c-0.451,7.7-1.132,14.946-1.132,22.646
							c-12.455,1.586-26.496-3.623-38.046-6.794L320.703,244.784z"/>
					</g>
					<g>
						<path style="fill:#94CBED;" d="M330.893,212.399c2.718,1.358,5.888,1.812,8.605,2.718c3.851,0.906,11.324,1.812,14.268,4.529
							c0.425,3.583-15.626-0.453-21.741-1.585"/>
						<path style="fill:#6F9EC9;" d="M330.893,212.399c2.778,1.215,5.786,1.517,8.707,2.414l-0.028-0.008
							c2.449,0.487,4.96,0.83,7.427,1.443c1.235,0.298,2.467,0.64,3.674,1.094c1.198,0.466,2.41,1.012,3.43,1.939l0.13,0.119
							l0.026,0.187c0.044,0.324-0.041,0.733-0.266,1.022c-0.22,0.293-0.502,0.454-0.762,0.57c-0.527,0.22-1.034,0.29-1.532,0.339
							c-0.994,0.082-1.96,0.034-2.919-0.042c-1.914-0.167-3.799-0.457-5.664-0.836c-1.865-0.371-3.72-0.779-5.566-1.213
							l-5.524-1.367c1.884,0.243,3.748,0.6,5.62,0.9c1.866,0.329,3.73,0.66,5.6,0.938c1.87,0.263,3.737,0.55,5.603,0.678
							c0.931,0.061,1.866,0.089,2.761,0c0.441-0.047,0.884-0.128,1.23-0.282c0.365-0.18,0.465-0.325,0.437-0.591l0.155,0.306
							c-0.861-0.765-1.963-1.33-3.101-1.779c-1.143-0.451-2.339-0.803-3.547-1.115c-2.422-0.612-4.892-1.065-7.357-1.687
							l-0.02-0.005l-0.009-0.003c-1.398-0.503-2.863-0.861-4.304-1.322C333.653,213.648,332.206,213.15,330.893,212.399z"/>
					</g>
					<g>
						<path style="fill:#94CBED;" d="M328.403,221.005c4.981,5.661,14.946,4.302,21.515,4.302"/>
						<path style="fill:#6F9EC9;" d="M328.403,221.005c1.393,1.296,3.06,2.165,4.803,2.744c1.752,0.569,3.585,0.872,5.436,1.036
							c3.703,0.36,7.489,0.151,11.276,0.523c-1.887,0.198-3.761,0.421-5.656,0.518c-1.893,0.113-3.802,0.121-5.712-0.046
							c-1.904-0.188-3.824-0.549-5.616-1.303C331.142,223.746,329.501,222.562,328.403,221.005z"/>
					</g>
					<g>
						<path style="fill:#FFCDBB;" d="M336.707,160.009c0.755-5.284,3.17-11.172,4.981-16.306c1.059-3.02,2.267-6.944,4.53-9.209
							c2.265-2.415,6.04-2.113,9.058-1.962c2.417,0.151,8.153,0,9.361,2.265c1.661,2.717-3.625,6.945-5.436,8.605
							c-6.037,5.134-12.681,9.36-18.871,14.494c-1.057,0.906-2.265,1.962-3.473,2.869L336.707,160.009z"/>
					</g>
					<g>
						<path style="fill:#FFFFFF;" d="M363.963,158.563c-5.943,0.383-12.27-0.191-18.407,0c-1.15,3.835-1.727,7.669-2.109,11.696
							c3.26,0.191,16.682,2.301,18.216,0L363.963,158.563z"/>
					</g>
					<g>
						<path style="fill:#CECECE;" d="M352.441,154.626c1.087,0.192,2.24,0.128,3.393,0.256c0.064,1.088-0.193,2.177-0.32,3.264
							c-0.13,1.152-0.065,2.88-0.576,3.904c-0.767-0.064-2.496-0.128-2.881-0.513L352.441,154.626z"/>
					</g>
					<path style="fill:#6DA8A1;" d="M346.015,159.306c0,0-0.717,3.76-0.896,4.923l3.306,0.382l0.901-5.305H346.015z"/>
				</g>
				<g>
					<g>
						<g>
							<path style="fill:#FFCDBB;" d="M296.534,194.872c-3.919-0.945-3.919-8.378-3.245-11.351c0.27-1.217,0.811-2.568-0.54-3.244
								c-1.486-0.675-2.973,0.405-3.783,1.487c-1.352,2.162-1.487,5.406-1.352,7.837c-2.027-0.135-6.441-0.27-8.467,0.406
								c-1.894,0.541-3.043,3.155-0.205,4.506c-3.303,2.476,1.259,4.331,1.259,4.331c-1.759,1.044-1.321,3.789,1.116,3.915
								c0,0-1.145,1.576,0,2.67c0.958,0.916,3.309,0.563,5.485,0.523c2.314-0.04,5.137-0.945,7.298-2.026
								c1.216-0.676,4.189-3.514,2.973-5.001L296.534,194.872z"/>
						</g>
						<g>
							<g>
								<path style="fill:#FFCDBB;" d="M350.137,196.444c-5.075,0.434-45.892-1.275-46.192-1.314
									c-2.853-0.153-6.796-0.808-10.047-1.332c-0.578,0.885-0.922,1.889-0.787,3.03c0.131,1.72,1.189,3.573,2.116,4.896
									c0.227,0.385-0.374,0.275-0.119,0.665c0.16-0.225,1.33-0.188,1.33-0.188s24.288,5.734,29.43,6.635
									c9.641,1.94,22.44,7.013,27.933-3.854C356.176,200.417,356.977,195.849,350.137,196.444z"/>
							</g>
						</g>
					</g>
					<g>
						<g>
							<path style="fill:#94CBED;" d="M359.57,149.156c-1.82,4.896-3.627,10.592-6.352,15.042c-1.199,1.869-2.838,3.19-4.035,5.059
								c-1.079,1.681-1.138,3.622-2.028,5.423c-0.738,1.767-2.02,2.528-3.316,3.936c-1.606,1.476-2.259,2.903-3.49,4.618
								c-0.805,1.461-1.832,2.648-2.978,4.023c-1.417,1.595-1.945,1.389-0.862,3.401c1.843,3.293,5.867,6.27,8.343,8.781
								c5.141,5.143,11.099,9.624,15.777,14.867c2.613-2.016,5.315-5.819,6.62-8.674c1.51-3.382,1.655-5.664,4.288-8.326
								c2.63-2.664,3.727-4.992,5.425-8.254c1.696-3.262,4.14-6.044,5.53-9.24"/>
							<path style="fill:#6F9EC9;" d="M359.57,149.156c-0.925,2.664-1.794,5.346-2.802,7.984c-1.018,2.633-2.104,5.252-3.651,7.667
								c-0.825,1.189-1.828,2.197-2.701,3.278c-0.435,0.542-0.846,1.097-1.176,1.695c-0.31,0.577-0.535,1.235-0.724,1.899
								c-0.191,0.669-0.358,1.36-0.589,2.047c-0.119,0.343-0.245,0.687-0.405,1.02c-0.129,0.292-0.292,0.667-0.492,0.98
								c-0.798,1.299-1.996,2.15-2.891,3.166l-0.008,0.008l-0.017,0.016c-0.683,0.639-1.269,1.362-1.802,2.146
								c-0.532,0.784-1.037,1.622-1.612,2.424l0.028-0.044c-0.907,1.635-2.081,2.99-3.267,4.38
								c-0.308,0.337-0.663,0.661-0.905,0.948c-0.119,0.148-0.163,0.243-0.168,0.342c-0.009,0.106,0.034,0.279,0.103,0.459
								c0.314,0.76,0.782,1.508,1.299,2.193c2.114,2.783,5.021,4.927,7.572,7.48c5.029,5.03,10.778,9.374,15.593,14.767
								l-0.597-0.055c1.31-1.015,2.451-2.281,3.487-3.61c1.03-1.338,1.977-2.753,2.75-4.249c0.772-1.491,1.289-3.114,1.938-4.727
								c0.629-1.621,1.623-3.161,2.878-4.361c2.46-2.371,3.998-5.453,5.631-8.473c1.692-3.014,3.991-5.606,5.447-8.727
								c-1.322,3.185-3.569,5.872-5.147,8.888c-0.786,1.517-1.511,3.078-2.382,4.573c-0.867,1.495-1.923,2.901-3.127,4.144
								c-1.204,1.201-2.081,2.622-2.672,4.207c-0.604,1.578-1.102,3.247-1.881,4.821c-0.778,1.563-1.709,3.036-2.763,4.421
								c-1.062,1.376-2.225,2.69-3.623,3.789l-0.32,0.252l-0.276-0.307c-4.757-5.278-10.531-9.575-15.634-14.644
								c-2.478-2.52-5.399-4.683-7.622-7.632c-0.551-0.746-1.044-1.524-1.407-2.422c-0.085-0.236-0.177-0.502-0.158-0.846
								c0.018-0.354,0.211-0.665,0.376-0.857c0.339-0.393,0.654-0.665,0.95-0.988c1.137-1.318,2.326-2.686,3.162-4.185l0.014-0.025
								l0.015-0.019c0.558-0.768,1.057-1.586,1.615-2.4c0.555-0.814,1.204-1.597,1.951-2.266l-0.024,0.024
								c0.992-1.07,2.159-1.885,2.862-3.005c0.185-0.28,0.308-0.551,0.47-0.899c0.151-0.3,0.273-0.617,0.392-0.938
								c0.229-0.645,0.408-1.322,0.614-2.006c0.21-0.686,0.45-1.368,0.82-2.028c0.363-0.63,0.805-1.205,1.262-1.753
								c0.918-1.094,1.93-2.079,2.733-3.197c1.547-2.305,2.732-4.887,3.813-7.477C357.577,154.433,358.534,151.778,359.57,149.156z"
								/>
						</g>
						<g>
							<path style="fill:#94CBED;" d="M341.583,190.354c2.442,2.359,5.954,5.929,9.043,8.306c1.408,1.299,4.818,4.409,6.964,3.94
								c3.102-0.517-1.129-2.965-2.317-3.991c-3.089-2.377-9.189-6.025-9.784-10.233c-0.651-3.712,2.539-0.875,4.44,0.476
								c4.738,3.303,9.303,7.286,15.139,8.259"/>
							<path style="fill:#6F9EC9;" d="M341.583,190.354l4.542,4.136c1.533,1.352,3.066,2.706,4.692,3.92l0.008,0.006l0.015,0.012
								c0.821,0.736,1.657,1.446,2.539,2.085c0.878,0.632,1.812,1.214,2.784,1.534c0.495,0.154,0.945,0.227,1.423,0.114
								c0.24-0.043,0.483-0.119,0.608-0.208c0.104-0.112,0.078-0.016,0.039-0.197c-0.152-0.335-0.578-0.728-0.975-1.058
								c-0.411-0.34-0.853-0.662-1.3-0.986c-1.759-1.374-3.58-2.565-5.363-3.944c-1.747-1.386-3.482-2.897-4.683-4.911
								c-0.603-1.01-0.945-2.182-0.957-3.398c0.018-0.311,0.029-0.699,0.375-1.082c0.422-0.382,0.925-0.285,1.218-0.201
								c0.632,0.204,1.104,0.524,1.581,0.84l5.343,3.973c3.52,2.622,7.204,5.233,11.595,6.123c-2.205-0.271-4.333-1.053-6.32-2.057
								c-2-0.997-3.841-2.267-5.664-3.526l-2.724-1.897c-0.926-0.604-1.824-1.303-2.709-1.903c-0.443-0.293-0.915-0.581-1.344-0.709
								c-0.222-0.066-0.354-0.028-0.354-0.01c-0.035,0.032-0.107,0.235-0.101,0.469c0.027,0.999,0.318,2.022,0.867,2.909
								c1.091,1.805,2.782,3.248,4.488,4.598c1.706,1.351,3.58,2.613,5.296,3.985c0.445,0.331,0.896,0.666,1.335,1.037
								c0.43,0.391,0.885,0.733,1.211,1.409c0.071,0.177,0.135,0.416,0.064,0.685c-0.067,0.27-0.26,0.463-0.424,0.573
								c-0.339,0.218-0.647,0.279-0.947,0.338c-0.611,0.14-1.295,0.028-1.846-0.161c-1.127-0.405-2.067-1.062-2.962-1.745
								c-0.891-0.691-1.72-1.446-2.521-2.214l0.02,0.018c-1.613-1.291-3.117-2.694-4.566-4.146
								C344.414,193.315,342.995,191.838,341.583,190.354z"/>
						</g>
						<g>
							<path style="fill:#94CBED;" d="M347.793,181.287c1.15,2.319,5.792,3.715,7.968,4.846c3.568,1.631,7.31,2.58,11.172,3.343"/>
							<path style="fill:#6F9EC9;" d="M347.793,181.287c0.505,0.733,1.214,1.248,1.97,1.664c0.749,0.43,1.546,0.779,2.348,1.119
								l2.444,0.984c0.412,0.166,0.819,0.348,1.232,0.545c0.356,0.174,0.8,0.359,1.186,0.517c3.199,1.358,6.58,2.288,9.961,3.361
								c-3.531-0.296-7.038-1.065-10.351-2.441c-0.426-0.184-0.796-0.343-1.229-0.562c-0.379-0.193-0.778-0.368-1.174-0.554
								c-0.793-0.374-1.609-0.726-2.397-1.146c-0.793-0.41-1.571-0.867-2.29-1.418C348.799,182.79,348.101,182.137,347.793,181.287z
								"/>
						</g>
					</g>
				</g>
			</g>
			<g>
				<g>
					<path style="fill:#FFCDBB;" d="M351.654,136.608c0-3.322-2.266-6.643-2.869-9.965c-1.058,0.754-3.926,3.02-5.284,2.717
						c-2.417-0.453-3.021-6.039-3.171-8.304c-1.813-0.15-3.774,0.152-5.586,0.152c0.453-1.963,2.265-3.926,2.565-6.04
						c-2.718-0.15-9.36-2.416-4.227-4.831c3.624-1.661,5.133-2.718,6.492-6.945c0.905-3.019,0.755-6.643,2.717-9.36
						c1.963-2.717,5.888-4.379,9.362-5.133c15.852-3.624,25.816,16.457,18.418,29.139c-2.264,3.774-6.944,4.378-7.548,9.059
						c-0.152,1.66,0,3.623,0.452,5.284c0.151,0.754,1.661,3.623,1.208,3.02"/>
				</g>
				<g>
					<path d="M363.429,119.548c-1.209,2.415-2.264,4.831-2.264,7.7l0,0c0.755,0.15,1.66,0.15,2.413,0.302
						c-0.15-3.624,4.683-5.134,6.946-7.247c2.417-2.416,3.17-6.19,4.229-9.361c1.056-3.019,1.508-4.68,1.508-7.85
						c0-3.926-2.847-6.7-5.887-8.455c-4.252-2.455-8.154-5.284-11.626-8.002c-3.32-2.566-7.917-8.303-9.814-7.398
						c-1.208,1.812,1.51,5.285,2.566,6.945c-2.869-1.056-6.341-6.341-7.699-5.133c-2.869,4.68,7.699,9.361,10.719,10.418
						c3.475,1.359,3.321,1.208,2.266,4.68c-0.755,2.717-2.115,5.436-2.566,8.002c1.056,0.151,2.264,0.151,3.472,0.302
						c-0.905,2.717-1.813,5.435-2.113,8.304c2.566,0.604,8.153,1.359,10.266,0.453L363.429,119.548z"/>
				</g>
				<g>
					<path style="fill:#FFCDBB;" d="M359.201,115.169c0.303-3.624,2.417-8.908,6.795-8.756c7.699,0.453,3.473,13.89-3.925,12.379
						c-0.756-0.151-1.358-0.452-1.812-0.905L359.201,115.169z"/>
				</g>
				<g>
					<g>
						<path style="fill:#CC6666;" d="M334.744,121.209c1.999-0.514,4.054-0.585,5.988-0.976c0.97-0.185,1.91-0.462,2.788-0.889
							c0.874-0.432,1.688-1.011,2.434-1.722c-0.496,0.899-1.227,1.7-2.127,2.265c-0.892,0.581-1.918,0.921-2.939,1.129
							C338.823,121.403,336.788,121.32,334.744,121.209z"/>
					</g>
					<g>
						<path d="M344.594,97.127c0.251-0.241,0.64-0.297,0.957-0.268c0.336,0.025,0.651,0.158,0.933,0.353
							c0.269,0.208,0.507,0.49,0.609,0.835c0.11,0.336,0.086,0.72-0.122,1.005c-0.213-0.284-0.386-0.465-0.557-0.621
							c-0.177-0.149-0.338-0.287-0.524-0.415c-0.176-0.142-0.373-0.267-0.577-0.418C345.092,97.457,344.909,97.303,344.594,97.127z"
							/>
					</g>
					<path d="M343.689,106.356c0,1.157-0.286,2.094-0.641,2.094c-0.354,0-0.641-0.938-0.641-2.094c0-1.158,0.287-2.095,0.641-2.095
						C343.403,104.261,343.689,105.198,343.689,106.356z"/>
				</g>
			</g>
		</g>
		<g>
			<path style="fill:#8E8E8E;" d="M226.458,391.728c0.544,2.168-12.618,4.048-28.184,4.048c-15.564,0-28.739-1.883-28.183-4.048
				c1.997-7.77,12.618-6.391,28.183-6.391C213.84,385.337,224.519,383.997,226.458,391.728z"/>
			<ellipse style="fill:#B7B7B7;" cx="198.28" cy="387.968" rx="25.301" ry="3.634"/>
			<g>
				<path style="fill:#686868;" d="M223.667,103.389c-1.657,0-3-1.343-3-3v-22c0-1.657,1.343-3,3-3c1.657,0,3,1.343,3,3v22
					C226.667,102.045,225.324,103.389,223.667,103.389z"/>
				<path style="fill:#B7B7B7;" d="M198.274,389.055c-1.657,0-3-1.343-3-3v-327c0-1.657,1.343-3,3-3c1.657,0,3,1.343,3,3v327
					C201.274,387.712,199.931,389.055,198.274,389.055z"/>
				<path style="fill:#B7B7B7;" d="M232.06,80.555h-67.966c-1.657,0-3-1.343-3-3s1.343-3,3-3h67.966c1.657,0,3,1.343,3,3
					S233.717,80.555,232.06,80.555z"/>
			</g>
		</g>
		<g>
			<g>
				<path style="fill:#8E8E8E;" d="M321.993,422.055c1.447,5.769-33.566,10.769-74.974,10.769c-41.407,0-76.454-5.009-74.974-10.769
					c5.311-20.667,33.567-17,74.974-17C288.426,405.055,316.833,401.49,321.993,422.055z"/>
				<ellipse style="fill:#B7B7B7;" cx="247.033" cy="412.055" rx="67.307" ry="9.667"/>
				<path style="fill:#686868;" d="M288.909,355.635v-1.561c0-7.745-6.026-14.02-13.464-14.02h-56.822
					c-7.436,0-13.464,6.274-13.464,14.02v1.561c0,4,1.617,7.6,4.196,10.153c-2.58,2.553-4.196,6.153-4.196,10.152v1.562
					c0,3.999,1.617,7.6,4.196,10.152c-2.58,2.554-4.196,6.153-4.196,10.153v1.561c0,7.745,6.029,14.02,13.464,14.02h56.822
					c7.438,0,13.464-6.274,13.464-14.02v-1.561c0-4-1.616-7.6-4.195-10.153c2.579-2.553,4.195-6.153,4.195-10.152v-1.562
					c0-3.999-1.616-7.6-4.195-10.152C287.292,363.235,288.909,359.635,288.909,355.635z"/>
			</g>
			<g>
				<g>
					<path style="fill:#B5EAE0;" d="M292.942,268.222c3.5-1.167,7.166-3.5,10.333-5.167c1.732-0.945,7.623-3.676,7.142-6.083
						c-0.545-0.558-1.333-0.986-2.475-1.25c-3-0.667-10.229-0.654-13.573-0.832c-28.261-1.501-72.761-3.835-88.094-3.835
						c-10,0-16.667,5.667-25.667,8.667l0.964,6.731c22.059,0.729,89.494,2.935,97.703,2.935
						C283.608,269.388,288.942,269.555,292.942,268.222z"/>
				</g>
				<g>
					<path style="fill:#93CCC1;" d="M310.417,256.972c0.481,2.407-5.409,5.138-7.142,6.083c-3.167,1.667-6.833,4-10.333,5.167
						c-4,1.333-9.334,1.166-13.667,1.166c-8.209,0-75.644-2.206-97.703-2.935l1.756,12.257c0,0,110.281,3.345,118.947,2.012
						c8-1.667,8.334-10,9-16.667C311.521,261.11,311.94,258.529,310.417,256.972z"/>
				</g>
			</g>
			<g>
				<g>
					<path style="fill:#B5EAE0;" d="M101.774,229.055c9.5,7.5,17,20,24,29.5c8,10.5,16,20.5,24.5,30c8.5,10,16.5,22,27,29.5
						c8.5,6.5,21,7.5,32,8.5c21,2,44,0,65.5-2c11.69-1.169,23.224-0.308,34.915,1.439c27.691,4.134,55.173,10.29,82.585,16.061
						c7.118,1.238,12.7-0.4,15.094-4.673c-2.258-4.381-7.023-8.971-9.594-12.827c-6.5-9-28.497-34.068-38.997-37.068
						c-9.5-2.5-25.263-0.759-34.763-3.259l-63.24-1.173c-16,0-31-2.5-46-9.5c-25-11-36.5-36.5-50.5-58c-6.5-10-9.5-11.5-22.501-11.5
						c-13.204,0.001-27.621,5.508-39.905,9.759c-8.293,2.871-17.296,7.753-23.144,14.013
						C85.777,223.764,95.055,223.504,101.774,229.055z"/>
				</g>
				<g>
					<path style="fill:#93CCC1;" d="M408.275,339.555c-0.215-0.716-0.529-1.441-0.906-2.173c-2.394,4.272-7.976,5.911-15.094,4.673
						c-27.412-5.772-54.894-11.928-82.585-16.061c-11.691-1.746-23.225-2.607-34.915-1.439c-21.5,2-44.5,4-65.5,2
						c-11-1-23.5-2-32-8.5c-10.5-7.5-18.5-19.5-27-29.5c-8.5-9.5-16.5-19.5-24.5-30c-7-9.5-14.5-22-24-29.5
						c-6.72-5.551-15.997-5.291-23.05-1.228c-7.271,7.784-9.662,17.698,0.274,28.53c15.174,16.544,29.325,33.465,45.09,49.515
						c5.88,5.986,11.455,12.075,17.686,17.684c9,8,18,16.5,28.5,22.5s25.5,6,37.5,5.5c31-2,61.5-9,92.5-1.5
						c14.5,4,65.5,12.5,75.5,14c12.5,1.5,22,2.5,28.5-10C406.775,349.555,410.275,345.055,408.275,339.555z"/>
				</g>
			</g>
			<g>
				<g>
					<path style="fill:#B5EAE0;" d="M164.714,217.563c-1.826-3.818-3.818-7.47-5.81-11.287c-2.158-4.482-4.647-8.797-8.465-11.951
						c-3.818-3.154-6.474-4.15-11.453-3.818c-3.652,0.332-7.636,1.66-11.122,2.988c-3.983,1.494-7.967,2.988-11.951,4.813
						c-3.289,1.431-8.423,2.495-11.374,5.098c1.644-0.783,3.572-1.025,5.233-0.45c3.818,1.328,7.138,4.149,9.793,6.972
						c3.154,3.319,6.474,6.639,9.295,10.291c3.32,4.482,8.133,9.793,8.797,15.437c0.332,2.656,0.498,4.979-1.66,6.972
						c-0.464,0.393-1.008,0.746-1.587,1.064c5.116-0.235,8.839-2.727,13.539-5.546l12.283-3.32c2.988-2.324,7.635-2.324,7.801-7.137
						C168.2,223.704,166.374,220.882,164.714,217.563z"/>
				</g>
				<g>
					<path style="fill:#93CCC1;" d="M137.658,235.655c-0.664-5.644-5.478-10.955-8.797-15.437
						c-2.822-3.652-6.142-6.972-9.295-10.291c-2.656-2.822-5.976-5.644-9.793-6.972c-1.661-0.575-3.589-0.333-5.233,0.45
						c-0.474,0.417-0.896,0.871-1.241,1.375c-2.988,4.648,0.166,8.797,2.656,12.781c1.66,2.49,3.651,4.648,4.979,7.138
						c1.328,2.49,2.656,4.98,4.481,7.137c3.652,4.814,8.632,10.624,15.105,11.619c1.396,0.222,2.682,0.29,3.891,0.235
						c0.58-0.318,1.123-0.671,1.587-1.064C138.156,240.635,137.99,238.311,137.658,235.655z"/>
				</g>
			</g>
		</g>
		<g style="opacity:0.3;">
			<path style="fill:#96B6CC;" d="M158.274,234.389c-3.333-2-6.333-5-7.667-9c-2-6.333,1-14.333-3.333-20c-6-8.333-13-3-12,5.667
				c1,7,5,13,4.667,20.667c-0.333,4,0.165,7.177-1.169,11.177c-1.333,3.667-3.164,6.49-2.164,10.156c2,8.334,6,15.334,10.667,22.334
				c2.333,3.333,4.333,7.333,8.333,8.333c4.667,1.333,6,1,9.333,5c5.667,6.667,10,14.333,17.667,19.333
				c12.667,8.334,29.333,12.667,44.667,7.667c14.667-5,29.666-8.667,45.333-10.333c15.667-1.667,29.334,3.666,43.667,9.333
				c14.667,6,30.333,7.333,45.667,12c6.666,2.333,14.666,4.333,22,3.667c3.666-0.334,7.666-3.667,6.333-7.667
				c-1.333-3.667-7.333-7-10.333-8.667c-18-8.666-38-15.333-57-21.333c-22.334-7-44.334-4-67.334-1.333
				c-11.333,1.333-22.667,3.333-34,3.333c-13,0-20.667-5.667-27-16.667c-4.667-7.666-8.333-15.666-12.667-23.333
				c-2.667-4.333-8-13.667-14-13.333L158.274,234.389z"/>
		</g>
		<g>
			<g>
				<g>
					<g>
						<path style="fill:#663333;" d="M145.065,197.006c-2.746-3.324-8.381-1.445-11.127,1.011c-2.456,2.167-3.757,5.202-3.035,8.381
							c0.867,3.179,3.324,5.636,3.902,8.815c0.289,1.734,0.578,3.757-0.289,5.347c-0.867,1.734-3.757,2.456-4.046,4.479
							c1.879,0.578,5.202-0.578,6.358-2.023c-0.578,0.578-2.89,3.324-2.746,4.335c0.289,1.59,2.89,1.012,4.046,0.578
							c3.323-1.445,5.924-5.202,5.635-8.815c0.145,1.59,1.301,7.514,2.89,3.035c0.867-2.167,0.145-5.058,0-7.225
							c-0.289-4.191,0.434-10.549-1.445-14.162L145.065,197.006z"/>
					</g>
					<g>
						<path style="fill:#8E4646;" d="M154.774,210.555c2.5-0.5,5.375-4.125,6.75-6.125s1.75-4.5,2.625-6.75
							c1.192-3.492,1.86-6.984,1.573-10.516c-5.321-0.689-11.886,0.037-16.612,2.471c-6.213,3.324-7.803,9.538-5.635,16.04
							c2.36,6.524,9.5,9.327,10.317,16.197c0.323-0.292,0.616-0.577,0.856-0.818C157.024,218.68,157.149,213.305,154.774,210.555z"
							/>
					</g>
				</g>
				<path style="fill:#FFC8BA;" d="M179.858,214.305c-1.011-1.156-2.424-1.548-3.002-3.427c-0.434-1.445,0.723-3.034,1.156-4.335
					c0.434-1.589,0.289-3.035,0.145-4.624c-0.578-6.937-4.913-13.728-12.283-14.74c-0.049-0.007-0.102-0.008-0.151-0.015
					c0.287,3.531-0.381,7.023-1.573,10.516c-0.875,2.25-1.25,4.75-2.625,6.75s-4.25,5.625-6.75,6.125
					c2.375,2.75,2.25,8.125-0.125,10.5c-0.241,0.241-0.534,0.525-0.856,0.818c0.034,0.282,0.076,0.558,0.087,0.855
					c0.145,3.179-1.012,8.526-4.191,9.537l0.289,0.434c0.434,0,0.867,0.434,1.301,0.867c1.3,1.3,2.167,2.601,3.612,3.757
					c1.878,1.445,4.046,2.601,6.069,3.902c3.468,2.312,8.237,4.913,12.572,4.624c5.058-0.289,1.012-6.503-0.723-8.67
					c-0.867-1.445-2.457-4.046-3.901-4.479c-1.301-0.289-3.499-0.126-4.8-0.56c0,0,1.444-4.433,2.167-6.167
					c5.954,1.007,6.766-0.43,8.5-3.031c1.011-1.589,1.5-4.719,1.5-4.719s1.015,0.17,2.894-0.697
					C180.468,216.803,181.014,215.606,179.858,214.305z"/>
				<g>
					<g>
						<path style="fill:#3F2215;" d="M171.524,205.139c-0.229-0.445-0.248-0.973-0.146-1.46c0.096-0.495,0.332-0.955,0.651-1.354
							c0.332-0.387,0.759-0.716,1.262-0.871c0.493-0.163,1.051-0.148,1.484,0.102c-0.467,0.17-0.826,0.366-1.143,0.6
							c-0.311,0.24-0.59,0.503-0.834,0.809c-0.257,0.295-0.475,0.629-0.689,0.982C171.9,204.305,171.712,204.681,171.524,205.139z"
							/>
					</g>
					<g>
						<path style="fill:#CC6666;" d="M174.774,221.591c-0.507,0.404-1.207,0.537-1.855,0.503c-0.66-0.026-1.29-0.221-1.875-0.481
							c-0.579-0.278-1.117-0.629-1.58-1.066c-0.463-0.432-0.871-0.94-1.107-1.539c1.085,0.644,2.066,1.216,3.107,1.699
							c0.513,0.248,1.039,0.452,1.577,0.62C173.585,221.484,174.135,221.596,174.774,221.591z"/>
					</g>
					<path d="M174.718,209.476c-0.146,1.001-0.533,1.775-0.863,1.727c-0.33-0.048-0.48-0.9-0.333-1.902s0.533-1.775,0.864-1.727
						C174.715,207.623,174.864,208.475,174.718,209.476z"/>
				</g>
				<path style="fill:#FFC8BA;" d="M158.274,211.68c-1.375-2.5-2.375-4.125-6-3.375c-2.75,0.5-3.625,4.5-3.25,7
					c0.5,2.75,3.875,3.625,6.375,3.375c1.25-0.125,2.5-0.375,2.875-1.625V211.68z"/>
				<g>
					<path style="fill:#AA5959;" d="M165.899,186.93c-1.625-0.375-2.5,2-2.875,3.125c-1,2.25-1.75,4.875-1.875,7.25
						c-0.375,3.125,1.25,2.5,2.25,0.125c-0.25,1-1.75,4.75-0.125,5.375c1.625,0.5,3.5-2.875,3.5-4.125l0,0
						c0,0.75-0.625,2,0.125,2.625c0.875,1,2-0.75,2.5-1.625c0.5-1.125,0.875-2.625,1-3.75c-0.25,1.125-1.125,5.875,1.25,4.25
						c1.25-0.875,1.5-3.75,1.5-5.125c0.125,1.25-0.875,4.25,1,4.375c1.5,0.125,2.125-2.875,2.375-4c0,1-1.25,3.75-0.125,4.375
						c1.625,1.25,2.875-2.375,3.125-3.375c-0.125,0.875-1.625,3.375-0.875,4.25c1.375,1.375,3.125-1.5,3.5-2.375
						c1.125-2,1.375-5,1.125-7.25c-0.75-5.75-7.75-8.25-12.75-6.375c-1.25,0.375-2.625,1-3.625,1.75L165.899,186.93z"/>
				</g>
			</g>
			<g>
				<g>
					<g>
						<g>
							<path style="fill:#683333;" d="M376.415,313.936c-0.938,2.098,1.561,2.098,2.811,1.613c3.278-1.129,6.401-4.034,9.056-6.295
								c6.403-5.326,12.805-11.459,18.114-18.075c2.186-2.905,5.465-12.105-1.406-11.46c-5.62,0.483-7.963,7.747-11.555,10.975
								L376.415,313.936z"/>
						</g>
						<path style="fill:#D9AA9E;" d="M384.729,288.699c-0.433,0.366-0.863,0.713-1.288,1.027c-4.372,3.066-9.837,6.133-14.99,7.424
							l-3.279,10.976c2.249,0.645,4.396,2.012,6.523,3.275c6.302-4.009,12.327-8.963,17.837-13.928
							C386.797,295.001,385.562,292.014,384.729,288.699z"/>
						<g>
							<path style="fill:#261919;" d="M402.491,279.074c-7.055-2.084-12.648,5.299-17.762,9.625
								c0.833,3.315,2.068,6.303,4.802,8.774c-5.51,4.965-11.535,9.919-17.837,13.928c0.534,0.317,1.065,0.629,1.597,0.921
								c1.563,0.807,2.655,2.099,4.06,1.614c1.249-0.484,2.811-1.937,3.903-2.745c6.871-4.68,13.43-10.328,19.206-16.462
								c2.342-2.582,4.685-5.972,5.466-9.522C406.707,281.495,406.083,280.203,402.491,279.074z"/>
						</g>
					</g>
					<g>
						<path style="fill:#263A61;" d="M223.268,297.39c0.683,2.314,2.079,3.273,5.396,3.699c3.186,0.41,6.372-0.009,9.558-0.146
							c5.622-0.242,10.774-1.936,16.162-3.631c5.152-1.453,10.54-2.422,15.692-4.116c4.685-1.21,9.604-2.179,14.288-3.147
							c1.17,0,2.342-0.483,3.278-0.483c1.874,0.241,1.406,1.21,2.811,1.694c1.406,0.484,2.343-0.969,3.279-0.969
							c1.405,0.242,1.405,0.969,2.343,1.695c4.216,3.146,9.837,3.631,14.522,5.084c5.152,1.452,9.837,3.147,14.521,5.326
							c7.495,3.147,14.757,4.6,22.251,7.021c3.748,1.21,7.027,0.484,10.54,2.421c3.045,1.452,6.793,1.452,10.54,1.937
							c2.108-5.326,3.748-14.041,2.108-19.609c-2.108,1.452-5.153,0.726-7.027-0.242c-3.045-1.694-3.98-2.179-7.495-1.936
							c-3.514,0.242-3.514-0.242-6.323-2.421c-2.343-1.938-4.686-1.211-7.262-1.695c-11.008-1.452-22.251-10.652-31.853-15.736
							c-5.153-3.147-8.912-6.503-12.18-7.263c-5.504-1.279-68.625,8.232-72.375,14.042c-3.058,4.738-3.839,10.094-3.268,15.654
							C222.889,295.681,223.039,296.612,223.268,297.39z"/>
					</g>
				</g>
				<g>
					<g>
						<g>
							<path style="fill:#8E4646;" d="M376.776,323.222c-1,2.166,1.666,2.166,3,1.666c3.5-1.166,6.833-4.166,9.666-6.5
								c6.834-5.5,13.667-11.833,19.334-18.666c2.333-3,5.833-12.5-1.5-11.834c-6,0.5-8.5,8-12.334,11.334L376.776,323.222z"/>
						</g>
						<path style="fill:#FFC8BA;" d="M385.65,297.162c-0.461,0.378-0.92,0.735-1.374,1.061c-4.667,3.166-10.5,6.333-16,7.666
							l-3.5,11.334c2.399,0.666,4.691,2.077,6.962,3.383c6.727-4.14,13.157-9.256,19.038-14.383
							C387.859,303.669,386.54,300.585,385.65,297.162z"/>
						<g>
							<path style="fill:#4C3232;" d="M404.609,287.222c-7.53-2.152-13.501,5.472-18.959,9.939c0.89,3.423,2.209,6.508,5.126,9.061
								c-5.881,5.127-12.312,10.243-19.038,14.383c0.569,0.327,1.137,0.649,1.704,0.95c1.667,0.833,2.834,2.167,4.334,1.667
								c1.333-0.5,3-2,4.166-2.834c7.334-4.833,14.334-10.666,20.5-17c2.5-2.666,5-6.166,5.834-9.833
								C409.109,289.722,408.442,288.388,404.609,287.222z"/>
						</g>
					</g>
					<g>
						<g>
							<path style="fill:#355087;" d="M213.313,306.136c0.729,2.39,2.219,3.38,5.76,3.82c3.4,0.423,6.802-0.01,10.202-0.151
								c6-0.25,11.5-2,17.25-3.75c5.5-1.5,11.25-2.5,16.75-4.25c5-1.25,10.25-2.25,15.25-3.25c1.25,0,2.5-0.5,3.5-0.5
								c2,0.25,1.5,1.25,3,1.75s2.5-1,3.5-1c1.5,0.25,1.5,1,2.5,1.75c4.5,3.25,10.5,3.75,15.5,5.25c5.5,1.5,10.5,3.25,15.5,5.5
								c8,3.25,15.75,4.75,23.75,7.25c4,1.25,7.5,0.5,11.25,2.5c3.25,1.5,7.25,1.5,11.25,2c2.25-5.5,4-14.5,2.25-20.25
								c-2.25,1.5-5.5,0.75-7.5-0.25c-3.25-1.75-4.25-2.25-8-2s-3.75-0.25-6.75-2.5c-2.5-2-5-1.25-7.75-1.75
								c-11.75-1.5-23.75-11-34-16.25c-5.5-3.25-9.513-6.716-13-7.5c-5.874-1.321-73.249,8.5-77.25,14.5
								c-3.264,4.894-4.098,10.424-3.488,16.166C212.909,304.372,213.068,305.332,213.313,306.136z"/>
						</g>
						<g>
							<path style="fill:#263A61;" d="M351.823,304.211c-0.532,1.997-0.596,4.086-0.721,6.132c-0.041,1.026-0.049,2.056,0.032,3.064
								c0.041,0.501,0.107,1.003,0.232,1.457c0.063,0.22,0.142,0.442,0.239,0.572c0.125,0.136,0.086,0.105,0.18,0.089
								c0.05,0.015,0.177-0.126,0.279-0.324c0.106-0.192,0.201-0.418,0.288-0.647c0.172-0.462,0.316-0.949,0.46-1.438
								c0.284-0.983,0.512-1.979,0.793-3.002c0.062-0.247,0.186-0.566,0.282-0.783l0.282-0.707l0.565-1.452
								c0.392-0.973,0.839-1.96,1.478-2.847l0.277-0.385l0.368,0.27c0.612,0.449,0.873,1.11,1.03,1.701
								c0.154,0.604,0.208,1.202,0.219,1.791c0.014,0.588-0.012,1.17-0.03,1.736l-0.003,1.709c-0.022,2.303-0.215,4.582-0.352,6.87
								c-0.136-2.288-0.172-4.585-0.259-6.858l-0.096-1.722c-0.014-0.578-0.021-1.141-0.065-1.695c-0.049-0.553-0.113-1.1-0.258-1.6
								c-0.143-0.498-0.378-0.952-0.718-1.174l0.646-0.115c-0.543,0.818-0.959,1.729-1.329,2.68l-1.084,2.858
								c-0.277,0.971-0.522,1.992-0.823,2.995c-0.148,0.505-0.314,1.007-0.519,1.509c-0.104,0.252-0.216,0.503-0.366,0.76
								c-0.152,0.235-0.335,0.579-0.811,0.719c-0.19,0.061-0.459,0.068-0.683-0.037c-0.224-0.103-0.365-0.265-0.464-0.411
								c-0.194-0.3-0.273-0.581-0.339-0.859c-0.118-0.554-0.152-1.087-0.168-1.618c-0.024-1.061,0.045-2.104,0.146-3.143
								c0.096-1.039,0.257-2.069,0.455-3.091C351.201,306.197,351.378,305.156,351.823,304.211z"/>
						</g>
						<g>
							<path style="fill:#263A61;" d="M362.868,304.963c0.396,2.078,0.577,4.165,0.451,6.29c-0.149,2.098-0.652,4.304-1.957,6.01
								c0.574-2.039,0.832-4.025,0.96-6.077C362.477,309.145,362.475,307.055,362.868,304.963z"/>
						</g>
					</g>
				</g>
			</g>
			<g>
				<g>
					<path style="fill:#FFC8BA;" d="M197.941,248.388c6.167,4,14.333,5,21.333,6.5c8,1.667,16.667,2.334,24.833,2.667
						c3.5,0.167,7.167,0.5,10.834,0.5c3.166,0,5.916,0.25,10-0.373c1.564-0.238,3.333,3.04,2.833,5.04c-0.5,1.666-2.5,2-4.166,2.166
						c-3.667,0.5-7.167,0.667-10.667,1c-7.001,0.5-18.724,1.089-25.724,1.089c0,0-9.485-1.362-16.276-2.755
						c-6.5-1.333-17.667-7.167-17.667-7.167L197.941,248.388z"/>
					<g>
						<path style="fill:#FFFFFF;" d="M223.367,255.325c1.09,1.882,1.387,4.061,1.585,6.24c0.892,0.297,5.15,0.495,6.141,0.396
							c0.099-1.585-0.495-4.458-1.387-5.745L223.367,255.325z"/>
					</g>
					<path style="fill:#FFC8BA;" d="M260.942,258.305c2.166-0.25,4.333-2.166,6.333-3c1.75-0.833,3.25-1.833,5-2.583
						c0.917-0.417,1.833-0.833,2.833-0.417c1,0.334,1.834,1.5,2.334,2.334c0.916,1.5,0.35,3.226,0.683,4.892
						c0.334,1.667,1.084,4-0.833,4.75c-1.917,0.834-2.684,0.024-4.517-0.226c-1.583-0.25-3.75,0.084-5.417,0.25
						c-1.5,0.167-3.666,1.167-5.083,0.584L260.942,258.305z"/>
					<g>
						<path style="fill:#CC6666;" d="M272.358,256.389c0.175,0.39,0.217,0.876,0.117,1.311c-0.088,0.446-0.304,0.854-0.565,1.21
							c-0.549,0.698-1.284,1.193-2.135,1.396c0.494-0.725,1.049-1.274,1.498-1.88c0.234-0.294,0.434-0.603,0.615-0.932
							C272.06,257.156,272.221,256.817,272.358,256.389z"/>
					</g>
					<g>
						<path style="fill:#FFC8BA;" d="M267.942,258.555c0.916,2.584,3.833,2.167,5.916,2.75c0.834,0.25,1.149,0.903,1.167,1.917
							c0.032,1.848-2.667,1.083-3.5,1.333c-1.834,0.417-1.5,1.5-3.333,1.75c-1.167,0.167-2.75,0.084-3.834-0.333
							c-1.333-0.583-1.5-1.5-2.5-2.333"/>
						<path style="fill:#CC6666;" d="M267.942,258.555c0.217,0.47,0.514,0.895,0.904,1.205c0.39,0.313,0.854,0.508,1.334,0.634
							c0.964,0.27,1.989,0.296,3.032,0.451c0.491,0.085,1.132,0.139,1.604,0.641c0.459,0.49,0.556,1.126,0.584,1.667
							c0.021,0.263-0.022,0.663-0.214,0.96c-0.196,0.315-0.516,0.514-0.808,0.613c-0.595,0.2-1.145,0.181-1.668,0.181
							c-0.261-0.005-0.518-0.017-0.751-0.011c-0.114,0.004-0.228,0.014-0.301,0.031c-0.136,0.031-0.251,0.06-0.352,0.092
							c-0.452,0.134-0.786,0.362-1.154,0.717c-0.361,0.366-0.933,0.738-1.492,0.837c-0.562,0.12-1.076,0.132-1.616,0.12
							c-1.056-0.052-2.135-0.168-3.103-0.71c-0.985-0.591-1.34-1.637-2.084-2.344c0.866,0.585,1.359,1.623,2.269,1.998
							c0.874,0.412,1.928,0.468,2.914,0.44c0.489-0.025,1.011-0.077,1.455-0.186c0.46-0.115,0.779-0.337,1.137-0.707
							c0.355-0.378,0.893-0.753,1.438-0.911c0.145-0.047,0.279-0.08,0.395-0.108c0.178-0.044,0.323-0.053,0.466-0.06
							c0.282-0.011,0.54-0.002,0.795,0.002c0.501,0.011,1.005,0.013,1.395-0.118c0.393-0.136,0.533-0.361,0.525-0.815
							c-0.003-0.474-0.087-0.931-0.342-1.214c-0.239-0.294-0.704-0.396-1.202-0.514c-0.98-0.223-2.035-0.316-3.042-0.684
							C269.052,260.411,268.167,259.583,267.942,258.555z"/>
					</g>
					<g>
						<path style="fill:#D6729B;" d="M193.274,257.555c4.5-1.833,7.607-5.721,8.607-10.555c0,0-11.857-4.945-17.691-9.778
							c-2.667-2.167-5.917-4.249-9.417-5.083c-3.5-0.667-7-1.417-10-0.084c4.167,3.167,9.333,7,13.833,10.167
							c2.833,2,7.333,5.167,9.333,7.5L193.274,257.555z"/>
					</g>
				</g>
				<g>
					<g>
						<path style="fill:#FF88AD;" d="M238.774,271.055c-3.167-0.333-6.667-0.833-9.833-1.333c-6.667-1-13.167-1.667-19.5-4
							c-4.167-1.667-7.167-2.834-9.667-6.667c-3.292-3.326-4.911-7.813-8.167-12.055c-2.587-3.371-12.333-7.779-15.333-10.445
							c0,0-7-5.834-11.5-4.5c0.282,0.247,2.61,3.933,6.097,9.578c-3.577-1.67-7.242-3.181-10.763-5.078
							c-1.833-0.834-3.636-2.054-5.333-3c-5.085-2.834-5.085-2.834-5.085-2.834c-3.667,1.5-7.081,4.334-6.915,8.667
							c0.5,8.833,9.167,13.333,14.5,19.167c2.833,3.167,5.5,6.667,8.333,10c3.167,3.5,6.667,6.833,9.667,10.5
							c5.333,6.833,10.5,13.833,17,19.5c3.333,2.833,7,5,10.667,7.167c2.833,1.666,6.833,4.5,10,5.166
							c2.667-6.666,6.167-12.833,10.333-18.833c3-4.167,6.667-7.833,11-10.667c4-2.5,7.5-5.333,11.333-7.833
							c1.167-0.667,2.167-1.436,3.333-1.936C246.441,270.12,241.608,271.222,238.774,271.055z"/>
					</g>
					<g>
						<path style="fill:#D6729B;" d="M230.889,272.694c-2.969,0.893-5.465,2.841-7.669,4.946c-1.104,1.065-2.133,2.205-3.113,3.384
							c-0.978,1.182-1.93,2.384-2.735,3.681c-1.623,2.588-2.849,5.42-3.938,8.274c-0.519,1.439-0.989,2.918-1.662,4.341
							c-0.663,1.405-1.569,2.825-2.995,3.693c-0.168,0.102-0.387,0.049-0.49-0.119c-0.024-0.04-0.041-0.089-0.048-0.133
							c-0.451-2.808-0.311-5.709,0.361-8.469c0.67-2.765,1.794-5.384,3.137-7.861c1.377-2.5,3.212-4.695,5.206-6.68
							c1.993-1.991,4.124-3.807,6.128-5.736l0.233,0.599c-2.69-0.074-5.225,1.292-7.362,2.96c-2.174,1.688-4.013,3.759-5.944,5.768
							c-1.908,1.982-3.592,4.204-5.134,6.496c-0.76,1.162-1.517,2.323-2.168,3.546c-0.641,1.221-1.215,2.509-1.393,3.892
							c0.136-1.389,0.673-2.703,1.281-3.949c0.618-1.248,1.343-2.438,2.067-3.622c1.482-2.357,3.097-4.636,5.018-6.681
							c1.877-2.02,3.707-4.155,5.9-5.919c1.093-0.882,2.272-1.681,3.571-2.274c1.295-0.589,2.73-0.949,4.182-0.914
							c0.192,0.005,0.344,0.165,0.339,0.357c-0.002,0.095-0.044,0.182-0.106,0.243c-2.014,1.958-4.133,3.786-6.085,5.76
							c-1.953,1.966-3.726,4.118-5.037,6.532c-1.3,2.441-2.436,4.989-3.092,7.665c-0.666,2.669-0.815,5.459-0.395,8.179
							l-0.538-0.252c1.241-0.742,2.097-2.026,2.741-3.377c0.652-1.362,1.127-2.822,1.683-4.269c1.152-2.874,2.434-5.704,4.13-8.313
							c1.732-2.586,3.794-4.907,6.068-7.004C225.313,275.383,227.892,273.498,230.889,272.694z"/>
					</g>
				</g>
				<g>
					<path style="fill:#FFC8BA;" d="M160.789,273.896c3.491,3.324,16.849,21.092,17.62,21.287c1.602,0.405,17.12-1.674,20.61-2.172
						c7.48-0.831,15.292-1.828,22.605-4.322c3.657-1.329,3.158-4.986-0.665-5.152c-3.49-0.166-7.147,0.499-10.638,0.499
						c-7.479,0-14.959,1.163-22.273,1.163c-1.496,0-3.49,0.166-4.986-0.166c-2.482-0.552-14.872-17.282-15.624-18.782
						L160.789,273.896z"/>
					<g>
						<path style="fill:#FFABC9;" d="M157.691,277.216c0.719-0.503,1.87-0.791,2.733-1.15c2.157-1.007,4.027-2.373,5.969-3.811
							c2.158-1.582,3.74-3.668,5.322-5.825c0.288-0.432,1.582-1.653,1.654-2.085c0.072-0.575-1.223-1.439-1.654-1.87
							c-3.164-3.164-6.329-6.544-9.061-10.067c-2.805-3.596-5.897-6.904-8.702-10.499c-1.223-1.582-2.445-3.524-3.883-4.89
							c-1.294-1.223-2.778-1.527-4.458-2.014c-2.841-0.823-4.51,6.682-4.387,9.205c0.801,16.347,15.677,32.576,16.18,32.648
							L157.691,277.216z"/>
					</g>
					<path style="fill:#FFC8BA;" d="M234.757,289.838c-1.186-1.097-2.935-2.513-3.55-3.957c1.059-0.605,6.731,6.856,7.887,5.158
						c0.596-0.344-1.664-2.612-2.534-3.533c-1.188-1.105-2.087-2.425-3.173-3.526c2.447,0.696,6.496,6.773,7.468,5.586
						c0.706-0.909-3.668-5.4-5.49-6.941c2.837,1.096,4.44,4.415,6.656,4.734c0.836-0.583-2.598-4.699-4.161-5.567
						c-1.867-0.943-2.436-1.287-4.449-1.526c-3.891-0.371-11.347,2.146-15.15,2.735c-3.374,0.522-2.804,4.536,0.3,6.98
						c2.523,1.989,8.702-0.549,11.464-1.076c0.71,0.341,1.439,0.667,2.406,1.267c1.166,0.8,1.299,1.305,3.165,1.961
						C236.794,292.295,235.623,290.665,234.757,289.838z"/>
				</g>
			</g>
		</g>
		<g>
			<g>
				<g>
					<path style="fill:#BC4444;" d="M227.773,258.094c-0.204-2.607-1.753-4.783-2.34-7.3c-0.554-2.371-0.213-4.855,0.51-7.143
						c1.769-5.599,6.742-9.667,12.046-11.683c4.104-1.56,6.232-3.624,6.703-8.128c0.55-5.261-4.168-10.113-7.528-13.562
						c-3.544-3.638-7.387-6.961-9.891-11.455c-3.181-5.71-3.162-13.13-3.314-19.496c-0.322-13.422-0.367-26.815,0.147-40.233
						c0.011-0.293-0.986-0.356-0.997-0.078c-0.502,13.117-0.358,26.18-0.165,39.3c0.087,5.928,0.208,12.271,2.181,17.924
						c1.629,4.669,5.204,8.285,8.648,11.677c4.079,4.016,8.825,8.335,9.854,14.239c0.48,2.751-0.532,5.971-2.73,7.702
						c-1.778,1.4-4.105,1.675-6.045,2.73c-4.307,2.339-7.792,5.786-9.677,10.356c-0.93,2.254-1.159,4.716-0.856,7.118
						c0.354,2.807,2.236,5.124,2.456,7.954C226.8,258.327,227.792,258.346,227.773,258.094L227.773,258.094z"/>
				</g>
			</g>
			<g>
				<path style="fill:#CAEEF9;" d="M234.211,98.222h-20.374c-3.165,0-5.73,2.565-5.73,5.73v29.923c0,3.165,2.566,5.73,5.73,5.73
					h0.797c-0.115,2.759-0.078,7.113,1.306,7.116c3.283,0.008,3.026-4.204,2.709-7.116h10.985c-0.115,2.759-0.078,7.113,1.306,7.116
					c3.283,0.008,3.026-4.204,2.709-7.116h0.561c3.164,0,5.73-2.566,5.73-5.73v-29.923
					C239.941,100.788,237.375,98.222,234.211,98.222z"/>
			</g>
			<g>
				<path style="fill:#BC4444;" d="M218.774,137.389c-1.667,0-3.833,0.333-5.333-0.667c-2.5-2-2.333-5.834-2.333-8.667
					c0-3.334,0-10,0-13.5c0-2.333,0.5-3,3.167-3.166c1.833-0.167,3.667,0,5.5,0.166c3.667,0.334,7.333,0.167,11,0
					c4.333-0.166,6.333,0.5,6,5.5c-0.167,3.667,0.036,9.625,0.036,13.459c0,4.167-0.869,6.542-5.536,7.042
					c-0.833,0.167-1.5,0.167-2.333,0L218.774,137.389z"/>
			</g>
			<rect x="215.274" y="120.055" style="fill:#FFFFFF;" width="16.786" height="6"/>
		</g>
	</g>
</g>
<g id="DESIGNED_BY_FREEPIK">
	<g>
		<g id="XMLID_319_">
			<g id="XMLID_338_">
				<path id="XMLID_346_" style="fill:#1D262D;" d="M260.104,465.465c-0.433,0.443-0.804,0.932-1.108,1.453l-0.465-0.241
					c-0.067-0.297-0.35-0.502-0.659-0.466c-0.331,0.039-0.567,0.339-0.529,0.67c0.039,0.331,0.339,0.567,0.67,0.528
					c0.065-0.007,0.127-0.025,0.184-0.052l0.451,0.234c-0.251,0.554-0.433,1.139-0.539,1.743l0.747,0.132
					c0.23-1.306,0.85-2.507,1.792-3.473L260.104,465.465z"/>
				<path id="XMLID_345_" style="fill:#1D262D;" d="M265.591,463.164c-0.171,0-0.341,0.006-0.509,0.017l-0.074-0.626
					c0.188-0.149,0.296-0.389,0.266-0.645c-0.046-0.393-0.402-0.674-0.795-0.628c-0.394,0.046-0.675,0.402-0.628,0.796
					c0.03,0.254,0.189,0.461,0.404,0.563l0.073,0.624c-0.714,0.116-1.402,0.332-2.06,0.646l0.327,0.685
					c0.935-0.447,1.941-0.674,2.995-0.674c0.497,0,0.993,0.053,1.476,0.158l0.16-0.741
					C266.692,463.222,266.142,463.164,265.591,463.164z"/>
				<path id="XMLID_344_" style="fill:#1D262D;" d="M272.194,465.711c0.331-0.04,0.566-0.341,0.525-0.672
					c-0.04-0.331-0.341-0.566-0.672-0.525c-0.31,0.038-0.535,0.304-0.53,0.608l-0.416,0.363c-0.418-0.43-0.89-0.813-1.407-1.14
					l-0.404,0.642c1.135,0.715,2.021,1.727,2.564,2.925l0.69-0.313c-0.251-0.554-0.567-1.071-0.942-1.545l0.402-0.351
					C272.065,465.715,272.128,465.719,272.194,465.711z"/>
				<path id="XMLID_343_" style="fill:#1D262D;" d="M265.044,473.372c-0.386,0.023-0.775,0.035-1.157,0.035
					c-0.88,0-1.733-0.061-2.479-0.18c-0.391-0.062-0.846-0.154-1.271-0.292c1.047,1.861,3.069,3.125,5.389,3.125
					c2.855,0,5.263-1.916,5.949-4.503c-0.682,0.449-1.505,0.825-2.458,1.122C267.838,473.047,266.463,473.287,265.044,473.372z"/>
				<path id="XMLID_339_" style="fill:#1D262D;" d="M265.591,464.68c-3.351,0-6.079,2.666-6.079,5.943
					c0,0.425,0.046,0.849,0.137,1.261c0.674,0.483,2.706,0.891,5.348,0.731c2.88-0.174,5.297-0.958,6.672-2.159
					c-0.005-0.194-0.021-0.39-0.045-0.581C271.244,466.914,268.65,464.68,265.591,464.68z M263.432,471.195
					c-1.02,0-1.85-0.83-1.85-1.85c0-1.021,0.83-1.851,1.85-1.851c1.02,0,1.85,0.83,1.85,1.851
					C265.282,470.365,264.452,471.195,263.432,471.195z M268.169,470.287c-0.75,0-1.36-0.61-1.36-1.36s0.61-1.36,1.36-1.36
					s1.36,0.61,1.36,1.36S268.919,470.287,268.169,470.287z"/>
			</g>
			<path id="XMLID_336_" style="fill:#1D262D;" d="M281.595,466.547c-0.295-0.116-0.806-0.31-1.383-0.238
				c-0.551,0.069-0.844,0.341-0.844,1.007v0.866h2.229v1.717h-2.229v5.455h-1.932v-5.455h-1.339v-1.717h1.339v-0.889
				c0-1.68,0.896-2.782,2.568-2.782c0.643,0,1.157,0.121,1.59,0.308V466.547z"/>
			<path id="XMLID_334_" style="fill:#1D262D;" d="M286.297,469.878c-0.177-0.029-0.357-0.046-0.525-0.046
				c-0.896,0-1.51,0.548-1.51,1.613v3.908h-1.933v-7.172h1.873v0.784c0.451-0.673,1.14-0.977,2.021-0.977
				c0.414,0,0.848,0.128,1.095,0.337L286.297,469.878z"/>
			<path id="XMLID_331_" style="fill:#1D262D;" d="M293.965,471.757c0,0.222-0.016,0.488-0.037,0.651h-5.085
				c0.207,1.036,0.933,1.487,1.843,1.487c0.622,0,1.295-0.252,1.813-0.689l1.133,1.243c-0.814,0.748-1.851,1.089-3.057,1.089
				c-2.198,0-3.724-1.496-3.724-3.753c0-2.258,1.48-3.797,3.627-3.797C292.543,467.99,293.958,469.522,293.965,471.757z
				 M288.851,471.091h3.175c-0.178-0.918-0.732-1.437-1.562-1.437C289.554,469.655,289.021,470.203,288.851,471.091z"/>
			<path id="XMLID_328_" style="fill:#1D262D;" d="M301.619,471.757c0,0.222-0.016,0.488-0.037,0.651h-5.085
				c0.207,1.036,0.933,1.487,1.843,1.487c0.622,0,1.296-0.252,1.814-0.689l1.133,1.243c-0.815,0.748-1.851,1.089-3.058,1.089
				c-2.198,0-3.723-1.496-3.723-3.753c0-2.258,1.48-3.797,3.627-3.797C300.197,467.99,301.611,469.522,301.619,471.757z
				 M296.504,471.091h3.175c-0.178-0.918-0.733-1.437-1.561-1.437C297.208,469.655,296.674,470.203,296.504,471.091z"/>
			<path id="XMLID_325_" style="fill:#1D262D;" d="M309.964,471.764c0,2.154-1.495,3.775-3.472,3.775
				c-0.962,0-1.644-0.378-2.109-0.933v3.708h-1.925v-10.133h1.888v0.792c0.467-0.585,1.154-0.984,2.139-0.984
				C308.469,467.99,309.964,469.611,309.964,471.764z M304.287,471.764c0,1.133,0.748,1.977,1.844,1.977
				c1.14,0,1.85-0.881,1.85-1.977c0-1.095-0.71-1.976-1.85-1.976C305.035,469.789,304.287,470.632,304.287,471.764z"/>
			<path id="XMLID_322_" style="fill:#1D262D;" d="M313.068,465.836c0,0.696-0.541,1.229-1.236,1.229
				c-0.696,0-1.229-0.533-1.229-1.229c0-0.695,0.532-1.243,1.229-1.243C312.527,464.592,313.068,465.14,313.068,465.836z
				 M312.808,475.354h-1.932v-7.172h1.932V475.354z"/>
			<path id="XMLID_320_" style="fill:#1D262D;" d="M316.032,470.736l2.702-2.554h2.368l-3.478,3.375l3.501,3.797h-2.376
				l-2.717-2.901v2.901H314.1v-10.658h1.932V470.736z"/>
		</g>
		<g>
			<path style="fill:#1D262D;" d="M184.412,475.29v-1.055c-0.527,0.718-1.391,1.23-2.387,1.23c-1.846,0-3.149-1.406-3.149-3.706
				c0-2.256,1.289-3.721,3.149-3.721c0.952,0,1.816,0.469,2.387,1.245v-3.765h1.099v9.771H184.412z M184.412,473.371v-3.208
				c-0.395-0.615-1.245-1.143-2.124-1.143c-1.42,0-2.27,1.172-2.27,2.739c0,1.567,0.85,2.725,2.27,2.725
				C183.167,474.484,184.017,473.986,184.412,473.371z"/>
			<path style="fill:#1D262D;" d="M186.932,471.745c0-2.051,1.465-3.706,3.486-3.706c2.139,0,3.398,1.67,3.398,3.794v0.278h-5.727
				c0.088,1.333,1.025,2.446,2.549,2.446c0.806,0,1.626-0.322,2.182-0.894l0.527,0.718c-0.703,0.703-1.655,1.084-2.812,1.084
				C188.44,475.465,186.932,473.957,186.932,471.745z M190.403,468.947c-1.509,0-2.256,1.274-2.314,2.358h4.644
				C192.718,470.25,192.015,468.947,190.403,468.947z"/>
			<path style="fill:#1D262D;" d="M194.607,474.352l0.571-0.791c0.469,0.542,1.362,1.011,2.329,1.011c1.084,0,1.67-0.513,1.67-1.216
				c0-1.714-4.38-0.659-4.38-3.281c0-1.099,0.952-2.036,2.636-2.036c1.202,0,2.051,0.454,2.623,1.025l-0.513,0.762
				c-0.424-0.513-1.201-0.894-2.109-0.894c-0.966,0-1.567,0.483-1.567,1.113c0,1.553,4.379,0.527,4.379,3.281
				c0,1.187-0.952,2.139-2.783,2.139C196.306,475.465,195.325,475.114,194.607,474.352z"/>
			<path style="fill:#1D262D;" d="M201.477,466.471c0-0.41,0.337-0.747,0.732-0.747c0.41,0,0.747,0.337,0.747,0.747
				c0,0.41-0.337,0.732-0.747,0.732C201.814,467.204,201.477,466.881,201.477,466.471z M201.667,475.29v-7.075h1.099v7.075H201.667z
				"/>
			<path style="fill:#1D262D;" d="M204.582,477.106l0.556-0.82c0.586,0.703,1.289,0.967,2.3,0.967c1.172,0,2.271-0.571,2.271-2.124
				v-1.011c-0.513,0.718-1.377,1.26-2.373,1.26c-1.846,0-3.149-1.377-3.149-3.662c0-2.271,1.289-3.677,3.149-3.677
				c0.952,0,1.802,0.469,2.373,1.245v-1.069h1.099v6.87c0,2.344-1.641,3.076-3.369,3.076
				C206.237,478.161,205.416,477.925,204.582,477.106z M209.708,473.253v-3.091c-0.381-0.615-1.23-1.143-2.109-1.143
				c-1.421,0-2.27,1.128-2.27,2.695c0,1.553,0.849,2.695,2.27,2.695C208.478,474.411,209.328,473.869,209.708,473.253z"/>
			<path style="fill:#1D262D;" d="M217.413,475.29v-4.629c0-1.245-0.63-1.641-1.582-1.641c-0.864,0-1.685,0.527-2.094,1.099v5.171
				h-1.099v-7.075h1.099v1.025c0.497-0.586,1.464-1.201,2.519-1.201c1.479,0,2.256,0.747,2.256,2.285v4.966H217.413z"/>
			<path style="fill:#1D262D;" d="M219.932,471.745c0-2.051,1.465-3.706,3.486-3.706c2.139,0,3.398,1.67,3.398,3.794v0.278h-5.727
				c0.088,1.333,1.025,2.446,2.548,2.446c0.806,0,1.626-0.322,2.183-0.894l0.527,0.718c-0.703,0.703-1.655,1.084-2.813,1.084
				C221.441,475.465,219.932,473.957,219.932,471.745z M223.404,468.947c-1.509,0-2.256,1.274-2.314,2.358h4.643
				C225.718,470.25,225.015,468.947,223.404,468.947z"/>
			<path style="fill:#1D262D;" d="M233.35,475.29v-1.055c-0.527,0.718-1.392,1.23-2.388,1.23c-1.845,0-3.149-1.406-3.149-3.706
				c0-2.256,1.289-3.721,3.149-3.721c0.952,0,1.817,0.469,2.388,1.245v-3.765h1.098v9.771H233.35z M233.35,473.371v-3.208
				c-0.396-0.615-1.245-1.143-2.124-1.143c-1.421,0-2.27,1.172-2.27,2.739c0,1.567,0.85,2.725,2.27,2.725
				C232.105,474.484,232.954,473.986,233.35,473.371z"/>
			<path style="fill:#1D262D;" d="M239.692,475.29v-9.771h1.099v3.765c0.571-0.776,1.421-1.245,2.388-1.245
				c1.845,0,3.149,1.465,3.149,3.721c0,2.3-1.304,3.706-3.149,3.706c-0.996,0-1.86-0.513-2.388-1.23v1.055H239.692z M242.9,474.484
				c1.436,0,2.285-1.157,2.285-2.725c0-1.567-0.85-2.739-2.285-2.739c-0.864,0-1.729,0.527-2.109,1.143v3.208
				C241.171,473.986,242.036,474.484,242.9,474.484z"/>
			<path style="fill:#1D262D;" d="M247.528,477.062c0.161,0.073,0.425,0.117,0.601,0.117c0.483,0,0.806-0.161,1.055-0.747
				l0.469-1.069l-2.959-7.148h1.187l2.358,5.801l2.344-5.801h1.2l-3.544,8.511c-0.425,1.024-1.143,1.421-2.08,1.436
				c-0.234,0-0.6-0.044-0.806-0.104L247.528,477.062z"/>
		</g>
	</g>
</g>
</svg>
